<?xml version="1.0" encoding="utf-8" standalone="no"?>
<!DOCTYPE svg PUBLIC "-//W3C//DTD SVG 1.1//EN"
  "http://www.w3.org/Graphics/SVG/1.1/DTD/svg11.dtd">
<!-- Created with matplotlib (http://matplotlib.org/) -->
<svg height="936pt" version="1.1" viewBox="0 0 538 936" width="538pt" xmlns="http://www.w3.org/2000/svg" xmlns:xlink="http://www.w3.org/1999/xlink">
 <defs>
  <style type="text/css">
*{stroke-linecap:butt;stroke-linejoin:round;}
  </style>
 </defs>
 <g id="figure_1">
  <g id="patch_1">
   <path d="M 0 936.33125 
L 538.155 936.33125 
L 538.155 0 
L 0 0 
z
" style="fill:#ffffff;"/>
  </g>
  <g id="axes_1">
   <g id="patch_2">
    <path d="M 81.555 830.9325 
L 527.955 830.9325 
L 527.955 15.5325 
L 81.555 15.5325 
z
" style="fill:#ffffff;"/>
   </g>
   <g id="matplotlib.axis_1">
    <g id="xtick_1">
     <g id="line2d_1">
      <path clip-path="url(#pcefcb0d579)" d="M 141.079579 830.9325 
L 141.079579 15.5325 
" style="fill:none;opacity:0.8;stroke:#ff0000;stroke-dasharray:2.96,1.28;stroke-dashoffset:0;stroke-width:0.8;"/>
     </g>
     <g id="line2d_2">
      <defs>
       <path d="M 0 0 
L 0 3 
" id="m54c6ad2ebb" style="stroke:#000000;"/>
      </defs>
      <g>
       <use style="stroke:#000000;" x="141.079579" xlink:href="#m54c6ad2ebb" y="830.9325"/>
      </g>
     </g>
     <g id="text_1">
      <!-- 8449.5 -->
      <defs>
       <path d="M 19.1875 33.34375 
Q 11.328125 39.796875 9.046875 43.703125 
Q 6.78125 47.609375 6.78125 51.8125 
Q 6.78125 58.25 11.765625 62.90625 
Q 16.75 67.578125 25 67.578125 
Q 33.015625 67.578125 37.890625 63.234375 
Q 42.78125 58.890625 42.78125 53.328125 
Q 42.78125 49.609375 40.140625 45.75 
Q 37.5 41.890625 29.15625 36.671875 
Q 37.75 30.03125 40.53125 26.21875 
Q 44.234375 21.234375 44.234375 15.71875 
Q 44.234375 8.734375 38.90625 3.78125 
Q 33.59375 -1.171875 24.953125 -1.171875 
Q 15.53125 -1.171875 10.25 4.734375 
Q 6.0625 9.46875 6.0625 15.09375 
Q 6.0625 19.484375 9.015625 23.796875 
Q 11.96875 28.125 19.1875 33.34375 
z
M 26.859375 38.578125 
Q 32.71875 43.84375 34.28125 46.890625 
Q 35.84375 49.953125 35.84375 53.8125 
Q 35.84375 58.9375 32.953125 61.84375 
Q 30.078125 64.75 25.09375 64.75 
Q 20.125 64.75 17 61.859375 
Q 13.875 58.984375 13.875 55.125 
Q 13.875 52.59375 15.15625 50.046875 
Q 16.453125 47.515625 18.84375 45.21875 
z
M 21.484375 31.5 
Q 17.4375 28.078125 15.484375 24.046875 
Q 13.53125 20.015625 13.53125 15.328125 
Q 13.53125 9.03125 16.96875 5.25 
Q 20.40625 1.46875 25.734375 1.46875 
Q 31 1.46875 34.171875 4.4375 
Q 37.359375 7.421875 37.359375 11.671875 
Q 37.359375 15.1875 35.5 17.96875 
Q 32.03125 23.140625 21.484375 31.5 
z
" id="TimesNewRomanPSMT-38"/>
       <path d="M 46.53125 24.421875 
L 46.53125 17.484375 
L 37.640625 17.484375 
L 37.640625 0 
L 29.59375 0 
L 29.59375 17.484375 
L 1.5625 17.484375 
L 1.5625 23.734375 
L 32.28125 67.578125 
L 37.640625 67.578125 
L 37.640625 24.421875 
z
M 29.59375 24.421875 
L 29.59375 57.28125 
L 6.34375 24.421875 
z
" id="TimesNewRomanPSMT-34"/>
       <path d="M 5.28125 -1.375 
L 5.28125 0.4375 
Q 11.625 0.53125 17.09375 3.390625 
Q 22.5625 6.25 27.65625 13.375 
Q 32.765625 20.515625 34.765625 29.046875 
Q 27.09375 24.125 20.90625 24.125 
Q 13.921875 24.125 8.9375 29.515625 
Q 3.953125 34.90625 3.953125 43.84375 
Q 3.953125 52.546875 8.9375 59.328125 
Q 14.9375 67.578125 24.609375 67.578125 
Q 32.765625 67.578125 38.578125 60.84375 
Q 45.703125 52.484375 45.703125 40.234375 
Q 45.703125 29.203125 40.28125 19.65625 
Q 34.859375 10.109375 25.203125 3.8125 
Q 17.328125 -1.375 8.0625 -1.375 
z
M 35.546875 32.671875 
Q 36.421875 39.015625 36.421875 42.828125 
Q 36.421875 47.5625 34.8125 53.046875 
Q 33.203125 58.546875 30.25 61.46875 
Q 27.296875 64.40625 23.53125 64.40625 
Q 19.1875 64.40625 15.90625 60.5 
Q 12.640625 56.59375 12.640625 48.875 
Q 12.640625 38.578125 17 32.765625 
Q 20.171875 28.5625 24.8125 28.5625 
Q 27.046875 28.5625 30.125 29.640625 
Q 33.203125 30.71875 35.546875 32.671875 
z
" id="TimesNewRomanPSMT-39"/>
       <path d="M 12.5 9.46875 
Q 14.796875 9.46875 16.359375 7.875 
Q 17.921875 6.296875 17.921875 4.046875 
Q 17.921875 1.8125 16.328125 0.21875 
Q 14.75 -1.375 12.5 -1.375 
Q 10.25 -1.375 8.65625 0.21875 
Q 7.078125 1.8125 7.078125 4.046875 
Q 7.078125 6.34375 8.65625 7.90625 
Q 10.25 9.46875 12.5 9.46875 
z
" id="TimesNewRomanPSMT-2e"/>
       <path d="M 43.40625 66.21875 
L 39.59375 57.90625 
L 19.671875 57.90625 
L 15.328125 49.03125 
Q 28.265625 47.125 35.84375 39.40625 
Q 42.328125 32.765625 42.328125 23.78125 
Q 42.328125 18.5625 40.203125 14.109375 
Q 38.09375 9.671875 34.859375 6.546875 
Q 31.640625 3.421875 27.6875 1.515625 
Q 22.078125 -1.171875 16.15625 -1.171875 
Q 10.203125 -1.171875 7.484375 0.84375 
Q 4.78125 2.875 4.78125 5.328125 
Q 4.78125 6.6875 5.90625 7.734375 
Q 7.03125 8.796875 8.734375 8.796875 
Q 10.015625 8.796875 10.96875 8.40625 
Q 11.921875 8.015625 14.203125 6.390625 
Q 17.875 3.859375 21.625 3.859375 
Q 27.34375 3.859375 31.65625 8.171875 
Q 35.984375 12.5 35.984375 18.703125 
Q 35.984375 24.703125 32.125 29.90625 
Q 28.265625 35.109375 21.484375 37.9375 
Q 16.15625 40.140625 6.984375 40.484375 
L 19.671875 66.21875 
z
" id="TimesNewRomanPSMT-35"/>
      </defs>
      <g transform="translate(146.845204 903.3325)rotate(-90)scale(0.24 -0.24)">
       <use xlink:href="#TimesNewRomanPSMT-38"/>
       <use x="50" xlink:href="#TimesNewRomanPSMT-34"/>
       <use x="100" xlink:href="#TimesNewRomanPSMT-34"/>
       <use x="150" xlink:href="#TimesNewRomanPSMT-39"/>
       <use x="200" xlink:href="#TimesNewRomanPSMT-2e"/>
       <use x="225" xlink:href="#TimesNewRomanPSMT-35"/>
      </g>
     </g>
    </g>
    <g id="xtick_2">
     <g id="line2d_3">
      <path clip-path="url(#pcefcb0d579)" d="M 170.84134 830.9325 
L 170.84134 15.5325 
" style="fill:none;opacity:0.8;stroke:#ff0000;stroke-dasharray:2.96,1.28;stroke-dashoffset:0;stroke-width:0.8;"/>
     </g>
     <g id="line2d_4">
      <g>
       <use style="stroke:#000000;" x="170.84134" xlink:href="#m54c6ad2ebb" y="830.9325"/>
      </g>
     </g>
     <g id="text_2">
      <!-- 8449.6 -->
      <defs>
       <path d="M 44.828125 67.578125 
L 44.828125 65.765625 
Q 38.375 65.140625 34.296875 63.203125 
Q 30.21875 61.28125 26.234375 57.328125 
Q 22.265625 53.375 19.65625 48.515625 
Q 17.046875 43.65625 15.28125 36.96875 
Q 22.3125 41.796875 29.390625 41.796875 
Q 36.1875 41.796875 41.15625 36.328125 
Q 46.140625 30.859375 46.140625 22.265625 
Q 46.140625 13.96875 41.109375 7.125 
Q 35.0625 -1.171875 25.09375 -1.171875 
Q 18.3125 -1.171875 13.578125 3.328125 
Q 4.296875 12.0625 4.296875 25.984375 
Q 4.296875 34.859375 7.859375 42.859375 
Q 11.421875 50.875 18.03125 57.078125 
Q 24.65625 63.28125 30.703125 65.421875 
Q 36.765625 67.578125 42 67.578125 
z
M 14.453125 33.40625 
Q 13.578125 26.8125 13.578125 22.75 
Q 13.578125 18.0625 15.3125 12.5625 
Q 17.046875 7.078125 20.453125 3.859375 
Q 22.953125 1.5625 26.515625 1.5625 
Q 30.765625 1.5625 34.109375 5.5625 
Q 37.453125 9.578125 37.453125 17 
Q 37.453125 25.34375 34.125 31.4375 
Q 30.8125 37.546875 24.703125 37.546875 
Q 22.859375 37.546875 20.734375 36.765625 
Q 18.609375 35.984375 14.453125 33.40625 
z
" id="TimesNewRomanPSMT-36"/>
      </defs>
      <g transform="translate(176.606965 903.3325)rotate(-90)scale(0.24 -0.24)">
       <use xlink:href="#TimesNewRomanPSMT-38"/>
       <use x="50" xlink:href="#TimesNewRomanPSMT-34"/>
       <use x="100" xlink:href="#TimesNewRomanPSMT-34"/>
       <use x="150" xlink:href="#TimesNewRomanPSMT-39"/>
       <use x="200" xlink:href="#TimesNewRomanPSMT-2e"/>
       <use x="225" xlink:href="#TimesNewRomanPSMT-36"/>
      </g>
     </g>
    </g>
    <g id="xtick_3">
     <g id="line2d_5">
      <path clip-path="url(#pcefcb0d579)" d="M 200.602748 830.9325 
L 200.602748 15.5325 
" style="fill:none;opacity:0.8;stroke:#ff0000;stroke-dasharray:2.96,1.28;stroke-dashoffset:0;stroke-width:0.8;"/>
     </g>
     <g id="line2d_6">
      <g>
       <use style="stroke:#000000;" x="200.602748" xlink:href="#m54c6ad2ebb" y="830.9325"/>
      </g>
     </g>
     <g id="text_3">
      <!-- 8449.7 -->
      <defs>
       <path d="M 10.0625 66.21875 
L 45.5625 66.21875 
L 45.5625 64.359375 
L 23.484375 -1.375 
L 18.015625 -1.375 
L 37.796875 58.25 
L 19.578125 58.25 
Q 14.0625 58.25 11.71875 56.9375 
Q 7.625 54.6875 5.125 50 
L 3.71875 50.53125 
z
" id="TimesNewRomanPSMT-37"/>
      </defs>
      <g transform="translate(206.368373 903.3325)rotate(-90)scale(0.24 -0.24)">
       <use xlink:href="#TimesNewRomanPSMT-38"/>
       <use x="50" xlink:href="#TimesNewRomanPSMT-34"/>
       <use x="100" xlink:href="#TimesNewRomanPSMT-34"/>
       <use x="150" xlink:href="#TimesNewRomanPSMT-39"/>
       <use x="200" xlink:href="#TimesNewRomanPSMT-2e"/>
       <use x="225" xlink:href="#TimesNewRomanPSMT-37"/>
      </g>
     </g>
    </g>
    <g id="xtick_4">
     <g id="line2d_7">
      <path clip-path="url(#pcefcb0d579)" d="M 230.363805 830.9325 
L 230.363805 15.5325 
" style="fill:none;opacity:0.8;stroke:#ff0000;stroke-dasharray:2.96,1.28;stroke-dashoffset:0;stroke-width:0.8;"/>
     </g>
     <g id="line2d_8">
      <g>
       <use style="stroke:#000000;" x="230.363805" xlink:href="#m54c6ad2ebb" y="830.9325"/>
      </g>
     </g>
     <g id="text_4">
      <!-- 8449.8 -->
      <g transform="translate(236.12943 903.3325)rotate(-90)scale(0.24 -0.24)">
       <use xlink:href="#TimesNewRomanPSMT-38"/>
       <use x="50" xlink:href="#TimesNewRomanPSMT-34"/>
       <use x="100" xlink:href="#TimesNewRomanPSMT-34"/>
       <use x="150" xlink:href="#TimesNewRomanPSMT-39"/>
       <use x="200" xlink:href="#TimesNewRomanPSMT-2e"/>
       <use x="225" xlink:href="#TimesNewRomanPSMT-38"/>
      </g>
     </g>
    </g>
    <g id="xtick_5">
     <g id="line2d_9">
      <path clip-path="url(#pcefcb0d579)" d="M 260.124509 830.9325 
L 260.124509 15.5325 
" style="fill:none;opacity:0.8;stroke:#ff0000;stroke-dasharray:2.96,1.28;stroke-dashoffset:0;stroke-width:0.8;"/>
     </g>
     <g id="line2d_10">
      <g>
       <use style="stroke:#000000;" x="260.124509" xlink:href="#m54c6ad2ebb" y="830.9325"/>
      </g>
     </g>
     <g id="text_5">
      <!-- 8449.9 -->
      <g transform="translate(265.890134 903.3325)rotate(-90)scale(0.24 -0.24)">
       <use xlink:href="#TimesNewRomanPSMT-38"/>
       <use x="50" xlink:href="#TimesNewRomanPSMT-34"/>
       <use x="100" xlink:href="#TimesNewRomanPSMT-34"/>
       <use x="150" xlink:href="#TimesNewRomanPSMT-39"/>
       <use x="200" xlink:href="#TimesNewRomanPSMT-2e"/>
       <use x="225" xlink:href="#TimesNewRomanPSMT-39"/>
      </g>
     </g>
    </g>
    <g id="xtick_6">
     <g id="line2d_11">
      <path clip-path="url(#pcefcb0d579)" d="M 289.884861 830.9325 
L 289.884861 15.5325 
" style="fill:none;opacity:0.8;stroke:#ff0000;stroke-dasharray:2.96,1.28;stroke-dashoffset:0;stroke-width:0.8;"/>
     </g>
     <g id="line2d_12">
      <g>
       <use style="stroke:#000000;" x="289.884861" xlink:href="#m54c6ad2ebb" y="830.9325"/>
      </g>
     </g>
     <g id="text_6">
      <!-- 8450.0 -->
      <defs>
       <path d="M 3.609375 32.71875 
Q 3.609375 44.046875 7.03125 52.21875 
Q 10.453125 60.40625 16.109375 64.40625 
Q 20.515625 67.578125 25.203125 67.578125 
Q 32.8125 67.578125 38.875 59.8125 
Q 46.4375 50.203125 46.4375 33.734375 
Q 46.4375 22.21875 43.109375 14.15625 
Q 39.796875 6.109375 34.640625 2.46875 
Q 29.5 -1.171875 24.703125 -1.171875 
Q 15.234375 -1.171875 8.9375 10.015625 
Q 3.609375 19.4375 3.609375 32.71875 
z
M 13.1875 31.5 
Q 13.1875 17.828125 16.546875 9.1875 
Q 19.34375 1.90625 24.859375 1.90625 
Q 27.484375 1.90625 30.3125 4.265625 
Q 33.15625 6.640625 34.625 12.203125 
Q 36.859375 20.609375 36.859375 35.890625 
Q 36.859375 47.21875 34.515625 54.78125 
Q 32.765625 60.40625 29.984375 62.75 
Q 27.984375 64.359375 25.140625 64.359375 
Q 21.828125 64.359375 19.234375 61.375 
Q 15.71875 57.328125 14.453125 48.625 
Q 13.1875 39.9375 13.1875 31.5 
z
" id="TimesNewRomanPSMT-30"/>
      </defs>
      <g transform="translate(295.650486 903.3325)rotate(-90)scale(0.24 -0.24)">
       <use xlink:href="#TimesNewRomanPSMT-38"/>
       <use x="50" xlink:href="#TimesNewRomanPSMT-34"/>
       <use x="100" xlink:href="#TimesNewRomanPSMT-35"/>
       <use x="150" xlink:href="#TimesNewRomanPSMT-30"/>
       <use x="200" xlink:href="#TimesNewRomanPSMT-2e"/>
       <use x="225" xlink:href="#TimesNewRomanPSMT-30"/>
      </g>
     </g>
    </g>
    <g id="xtick_7">
     <g id="line2d_13">
      <path clip-path="url(#pcefcb0d579)" d="M 319.644861 830.9325 
L 319.644861 15.5325 
" style="fill:none;opacity:0.8;stroke:#ff0000;stroke-dasharray:2.96,1.28;stroke-dashoffset:0;stroke-width:0.8;"/>
     </g>
     <g id="line2d_14">
      <g>
       <use style="stroke:#000000;" x="319.644861" xlink:href="#m54c6ad2ebb" y="830.9325"/>
      </g>
     </g>
     <g id="text_7">
      <!-- 8450.1 -->
      <defs>
       <path d="M 11.71875 59.71875 
L 27.828125 67.578125 
L 29.4375 67.578125 
L 29.4375 11.671875 
Q 29.4375 6.109375 29.90625 4.734375 
Q 30.375 3.375 31.828125 2.640625 
Q 33.296875 1.90625 37.796875 1.8125 
L 37.796875 0 
L 12.890625 0 
L 12.890625 1.8125 
Q 17.578125 1.90625 18.9375 2.609375 
Q 20.3125 3.328125 20.84375 4.515625 
Q 21.390625 5.71875 21.390625 11.671875 
L 21.390625 47.40625 
Q 21.390625 54.640625 20.90625 56.6875 
Q 20.5625 58.25 19.65625 58.984375 
Q 18.75 59.71875 17.484375 59.71875 
Q 15.671875 59.71875 12.453125 58.203125 
z
" id="TimesNewRomanPSMT-31"/>
      </defs>
      <g transform="translate(325.410486 903.3325)rotate(-90)scale(0.24 -0.24)">
       <use xlink:href="#TimesNewRomanPSMT-38"/>
       <use x="50" xlink:href="#TimesNewRomanPSMT-34"/>
       <use x="100" xlink:href="#TimesNewRomanPSMT-35"/>
       <use x="150" xlink:href="#TimesNewRomanPSMT-30"/>
       <use x="200" xlink:href="#TimesNewRomanPSMT-2e"/>
       <use x="225" xlink:href="#TimesNewRomanPSMT-31"/>
      </g>
     </g>
    </g>
    <g id="xtick_8">
     <g id="line2d_15">
      <path clip-path="url(#pcefcb0d579)" d="M 349.404509 830.9325 
L 349.404509 15.5325 
" style="fill:none;opacity:0.8;stroke:#ff0000;stroke-dasharray:2.96,1.28;stroke-dashoffset:0;stroke-width:0.8;"/>
     </g>
     <g id="line2d_16">
      <g>
       <use style="stroke:#000000;" x="349.404509" xlink:href="#m54c6ad2ebb" y="830.9325"/>
      </g>
     </g>
     <g id="text_8">
      <!-- 8450.2 -->
      <defs>
       <path d="M 45.84375 12.75 
L 41.21875 0 
L 2.15625 0 
L 2.15625 1.8125 
Q 19.390625 17.53125 26.421875 27.484375 
Q 33.453125 37.453125 33.453125 45.703125 
Q 33.453125 52 29.59375 56.046875 
Q 25.734375 60.109375 20.359375 60.109375 
Q 15.484375 60.109375 11.59375 57.25 
Q 7.71875 54.390625 5.859375 48.875 
L 4.046875 48.875 
Q 5.28125 57.90625 10.328125 62.734375 
Q 15.375 67.578125 22.953125 67.578125 
Q 31 67.578125 36.390625 62.40625 
Q 41.796875 57.234375 41.796875 50.203125 
Q 41.796875 45.171875 39.453125 40.140625 
Q 35.84375 32.234375 27.734375 23.390625 
Q 15.578125 10.109375 12.546875 7.375 
L 29.828125 7.375 
Q 35.109375 7.375 37.234375 7.765625 
Q 39.359375 8.15625 41.0625 9.34375 
Q 42.78125 10.546875 44.046875 12.75 
z
" id="TimesNewRomanPSMT-32"/>
      </defs>
      <g transform="translate(355.170134 903.3325)rotate(-90)scale(0.24 -0.24)">
       <use xlink:href="#TimesNewRomanPSMT-38"/>
       <use x="50" xlink:href="#TimesNewRomanPSMT-34"/>
       <use x="100" xlink:href="#TimesNewRomanPSMT-35"/>
       <use x="150" xlink:href="#TimesNewRomanPSMT-30"/>
       <use x="200" xlink:href="#TimesNewRomanPSMT-2e"/>
       <use x="225" xlink:href="#TimesNewRomanPSMT-32"/>
      </g>
     </g>
    </g>
    <g id="xtick_9">
     <g id="line2d_17">
      <path clip-path="url(#pcefcb0d579)" d="M 379.163805 830.9325 
L 379.163805 15.5325 
" style="fill:none;opacity:0.8;stroke:#ff0000;stroke-dasharray:2.96,1.28;stroke-dashoffset:0;stroke-width:0.8;"/>
     </g>
     <g id="line2d_18">
      <g>
       <use style="stroke:#000000;" x="379.163805" xlink:href="#m54c6ad2ebb" y="830.9325"/>
      </g>
     </g>
     <g id="text_9">
      <!-- 8450.3 -->
      <defs>
       <path d="M 5.078125 53.609375 
Q 7.90625 60.296875 12.21875 63.9375 
Q 16.546875 67.578125 23 67.578125 
Q 30.953125 67.578125 35.203125 62.40625 
Q 38.421875 58.546875 38.421875 54.15625 
Q 38.421875 46.921875 29.34375 39.203125 
Q 35.453125 36.8125 38.578125 32.375 
Q 41.703125 27.9375 41.703125 21.921875 
Q 41.703125 13.328125 36.234375 7.03125 
Q 29.109375 -1.171875 15.578125 -1.171875 
Q 8.890625 -1.171875 6.46875 0.484375 
Q 4.046875 2.15625 4.046875 4.046875 
Q 4.046875 5.46875 5.1875 6.546875 
Q 6.34375 7.625 7.953125 7.625 
Q 9.1875 7.625 10.453125 7.234375 
Q 11.28125 6.984375 14.203125 5.4375 
Q 17.140625 3.90625 18.265625 3.609375 
Q 20.0625 3.078125 22.125 3.078125 
Q 27.09375 3.078125 30.78125 6.9375 
Q 34.46875 10.796875 34.46875 16.0625 
Q 34.46875 19.921875 32.765625 23.578125 
Q 31.5 26.3125 29.984375 27.734375 
Q 27.875 29.6875 24.21875 31.265625 
Q 20.5625 32.859375 16.75 32.859375 
L 15.1875 32.859375 
L 15.1875 34.328125 
Q 19.046875 34.8125 22.921875 37.109375 
Q 26.8125 39.40625 28.5625 42.625 
Q 30.328125 45.84375 30.328125 49.703125 
Q 30.328125 54.734375 27.171875 57.828125 
Q 24.03125 60.9375 19.34375 60.9375 
Q 11.765625 60.9375 6.6875 52.828125 
z
" id="TimesNewRomanPSMT-33"/>
      </defs>
      <g transform="translate(384.92943 903.3325)rotate(-90)scale(0.24 -0.24)">
       <use xlink:href="#TimesNewRomanPSMT-38"/>
       <use x="50" xlink:href="#TimesNewRomanPSMT-34"/>
       <use x="100" xlink:href="#TimesNewRomanPSMT-35"/>
       <use x="150" xlink:href="#TimesNewRomanPSMT-30"/>
       <use x="200" xlink:href="#TimesNewRomanPSMT-2e"/>
       <use x="225" xlink:href="#TimesNewRomanPSMT-33"/>
      </g>
     </g>
    </g>
    <g id="xtick_10">
     <g id="line2d_19">
      <path clip-path="url(#pcefcb0d579)" d="M 408.922748 830.9325 
L 408.922748 15.5325 
" style="fill:none;opacity:0.8;stroke:#ff0000;stroke-dasharray:2.96,1.28;stroke-dashoffset:0;stroke-width:0.8;"/>
     </g>
     <g id="line2d_20">
      <g>
       <use style="stroke:#000000;" x="408.922748" xlink:href="#m54c6ad2ebb" y="830.9325"/>
      </g>
     </g>
     <g id="text_10">
      <!-- 8450.4 -->
      <g transform="translate(414.688373 903.3325)rotate(-90)scale(0.24 -0.24)">
       <use xlink:href="#TimesNewRomanPSMT-38"/>
       <use x="50" xlink:href="#TimesNewRomanPSMT-34"/>
       <use x="100" xlink:href="#TimesNewRomanPSMT-35"/>
       <use x="150" xlink:href="#TimesNewRomanPSMT-30"/>
       <use x="200" xlink:href="#TimesNewRomanPSMT-2e"/>
       <use x="225" xlink:href="#TimesNewRomanPSMT-34"/>
      </g>
     </g>
    </g>
    <g id="xtick_11">
     <g id="line2d_21">
      <path clip-path="url(#pcefcb0d579)" d="M 438.681339 830.9325 
L 438.681339 15.5325 
" style="fill:none;opacity:0.8;stroke:#ff0000;stroke-dasharray:2.96,1.28;stroke-dashoffset:0;stroke-width:0.8;"/>
     </g>
     <g id="line2d_22">
      <g>
       <use style="stroke:#000000;" x="438.681339" xlink:href="#m54c6ad2ebb" y="830.9325"/>
      </g>
     </g>
     <g id="text_11">
      <!-- 8450.5 -->
      <g transform="translate(444.446964 903.3325)rotate(-90)scale(0.24 -0.24)">
       <use xlink:href="#TimesNewRomanPSMT-38"/>
       <use x="50" xlink:href="#TimesNewRomanPSMT-34"/>
       <use x="100" xlink:href="#TimesNewRomanPSMT-35"/>
       <use x="150" xlink:href="#TimesNewRomanPSMT-30"/>
       <use x="200" xlink:href="#TimesNewRomanPSMT-2e"/>
       <use x="225" xlink:href="#TimesNewRomanPSMT-35"/>
      </g>
     </g>
    </g>
    <g id="xtick_12">
     <g id="line2d_23">
      <path clip-path="url(#pcefcb0d579)" d="M 468.439578 830.9325 
L 468.439578 15.5325 
" style="fill:none;opacity:0.8;stroke:#ff0000;stroke-dasharray:2.96,1.28;stroke-dashoffset:0;stroke-width:0.8;"/>
     </g>
     <g id="line2d_24">
      <g>
       <use style="stroke:#000000;" x="468.439578" xlink:href="#m54c6ad2ebb" y="830.9325"/>
      </g>
     </g>
     <g id="text_12">
      <!-- 8450.6 -->
      <g transform="translate(474.205203 903.3325)rotate(-90)scale(0.24 -0.24)">
       <use xlink:href="#TimesNewRomanPSMT-38"/>
       <use x="50" xlink:href="#TimesNewRomanPSMT-34"/>
       <use x="100" xlink:href="#TimesNewRomanPSMT-35"/>
       <use x="150" xlink:href="#TimesNewRomanPSMT-30"/>
       <use x="200" xlink:href="#TimesNewRomanPSMT-2e"/>
       <use x="225" xlink:href="#TimesNewRomanPSMT-36"/>
      </g>
     </g>
    </g>
    <g id="text_13">
     <!-- Frecuencia [MHz] -->
     <defs>
      <path d="M 20.453125 62.59375 
L 20.453125 36.578125 
L 32.515625 36.578125 
Q 36.671875 36.578125 38.59375 38.40625 
Q 40.53125 40.234375 41.15625 45.65625 
L 42.96875 45.65625 
L 42.96875 23.25 
L 41.15625 23.25 
Q 41.109375 27.09375 40.15625 28.90625 
Q 39.203125 30.71875 37.515625 31.609375 
Q 35.84375 32.515625 32.515625 32.515625 
L 20.453125 32.515625 
L 20.453125 11.71875 
Q 20.453125 6.6875 21.09375 5.078125 
Q 21.578125 3.859375 23.140625 2.984375 
Q 25.296875 1.8125 27.640625 1.8125 
L 30.03125 1.8125 
L 30.03125 0 
L 1.609375 0 
L 1.609375 1.8125 
L 3.953125 1.8125 
Q 8.0625 1.8125 9.90625 4.203125 
Q 11.078125 5.765625 11.078125 11.71875 
L 11.078125 54.5 
Q 11.078125 59.515625 10.453125 61.140625 
Q 9.96875 62.359375 8.453125 63.234375 
Q 6.34375 64.40625 3.953125 64.40625 
L 1.609375 64.40625 
L 1.609375 66.21875 
L 50.875 66.21875 
L 51.515625 51.65625 
L 49.8125 51.65625 
Q 48.53125 56.296875 46.84375 58.46875 
Q 45.171875 60.640625 42.703125 61.609375 
Q 40.234375 62.59375 35.0625 62.59375 
z
" id="TimesNewRomanPSMT-46"/>
      <path d="M 16.21875 46.046875 
L 16.21875 35.984375 
Q 21.828125 46.046875 27.734375 46.046875 
Q 30.421875 46.046875 32.171875 44.40625 
Q 33.9375 42.78125 33.9375 40.625 
Q 33.9375 38.71875 32.65625 37.390625 
Q 31.390625 36.078125 29.640625 36.078125 
Q 27.9375 36.078125 25.8125 37.765625 
Q 23.6875 39.453125 22.65625 39.453125 
Q 21.78125 39.453125 20.75 38.484375 
Q 18.5625 36.46875 16.21875 31.890625 
L 16.21875 10.453125 
Q 16.21875 6.734375 17.140625 4.828125 
Q 17.78125 3.515625 19.390625 2.640625 
Q 21 1.765625 24.03125 1.765625 
L 24.03125 0 
L 1.125 0 
L 1.125 1.765625 
Q 4.546875 1.765625 6.203125 2.828125 
Q 7.421875 3.609375 7.90625 5.328125 
Q 8.15625 6.15625 8.15625 10.0625 
L 8.15625 27.390625 
Q 8.15625 35.203125 7.828125 36.6875 
Q 7.515625 38.1875 6.65625 38.859375 
Q 5.8125 39.546875 4.546875 39.546875 
Q 3.03125 39.546875 1.125 38.8125 
L 0.640625 40.578125 
L 14.15625 46.046875 
z
" id="TimesNewRomanPSMT-72"/>
      <path d="M 10.640625 27.875 
Q 10.59375 17.921875 15.484375 12.25 
Q 20.359375 6.59375 26.953125 6.59375 
Q 31.34375 6.59375 34.59375 9 
Q 37.84375 11.421875 40.046875 17.28125 
L 41.546875 16.3125 
Q 40.53125 9.625 35.59375 4.125 
Q 30.671875 -1.375 23.25 -1.375 
Q 15.1875 -1.375 9.453125 4.90625 
Q 3.71875 11.1875 3.71875 21.78125 
Q 3.71875 33.25 9.59375 39.671875 
Q 15.484375 46.09375 24.359375 46.09375 
Q 31.890625 46.09375 36.71875 41.140625 
Q 41.546875 36.1875 41.546875 27.875 
z
M 10.640625 30.71875 
L 31.34375 30.71875 
Q 31.109375 35.015625 30.328125 36.765625 
Q 29.109375 39.5 26.6875 41.0625 
Q 24.265625 42.625 21.625 42.625 
Q 17.578125 42.625 14.375 39.46875 
Q 11.1875 36.328125 10.640625 30.71875 
z
" id="TimesNewRomanPSMT-65"/>
      <path d="M 41.109375 17 
Q 39.3125 8.15625 34.03125 3.390625 
Q 28.765625 -1.375 22.359375 -1.375 
Q 14.75 -1.375 9.078125 5.015625 
Q 3.421875 11.421875 3.421875 22.3125 
Q 3.421875 32.859375 9.6875 39.453125 
Q 15.96875 46.046875 24.75 46.046875 
Q 31.34375 46.046875 35.59375 42.546875 
Q 39.84375 39.0625 39.84375 35.296875 
Q 39.84375 33.453125 38.640625 32.296875 
Q 37.453125 31.15625 35.296875 31.15625 
Q 32.421875 31.15625 30.953125 33.015625 
Q 30.125 34.03125 29.859375 36.90625 
Q 29.59375 39.796875 27.875 41.3125 
Q 26.171875 42.78125 23.140625 42.78125 
Q 18.265625 42.78125 15.28125 39.15625 
Q 11.328125 34.375 11.328125 26.515625 
Q 11.328125 18.5 15.25 12.375 
Q 19.1875 6.25 25.875 6.25 
Q 30.671875 6.25 34.46875 9.515625 
Q 37.15625 11.765625 39.703125 17.671875 
z
" id="TimesNewRomanPSMT-63"/>
      <path d="M 42.328125 44.734375 
L 42.328125 17.625 
Q 42.328125 9.859375 42.6875 8.125 
Q 43.0625 6.390625 43.859375 5.703125 
Q 44.671875 5.03125 45.75 5.03125 
Q 47.265625 5.03125 49.171875 5.859375 
L 49.859375 4.15625 
L 36.46875 -1.375 
L 34.28125 -1.375 
L 34.28125 8.109375 
Q 28.515625 1.859375 25.484375 0.234375 
Q 22.46875 -1.375 19.09375 -1.375 
Q 15.328125 -1.375 12.5625 0.796875 
Q 9.8125 2.984375 8.734375 6.390625 
Q 7.671875 9.8125 7.671875 16.0625 
L 7.671875 36.03125 
Q 7.671875 39.203125 6.984375 40.421875 
Q 6.296875 41.65625 4.953125 42.3125 
Q 3.609375 42.96875 0.09375 42.921875 
L 0.09375 44.734375 
L 15.765625 44.734375 
L 15.765625 14.796875 
Q 15.765625 8.546875 17.9375 6.59375 
Q 20.125 4.640625 23.1875 4.640625 
Q 25.296875 4.640625 27.953125 5.953125 
Q 30.609375 7.28125 34.28125 10.984375 
L 34.28125 36.328125 
Q 34.28125 40.140625 32.890625 41.484375 
Q 31.5 42.828125 27.09375 42.921875 
L 27.09375 44.734375 
z
" id="TimesNewRomanPSMT-75"/>
      <path d="M 16.15625 36.578125 
Q 24.03125 46.046875 31.15625 46.046875 
Q 34.8125 46.046875 37.453125 44.21875 
Q 40.09375 42.390625 41.65625 38.1875 
Q 42.71875 35.25 42.71875 29.203125 
L 42.71875 10.109375 
Q 42.71875 5.859375 43.40625 4.34375 
Q 43.953125 3.125 45.140625 2.4375 
Q 46.34375 1.765625 49.5625 1.765625 
L 49.5625 0 
L 27.4375 0 
L 27.4375 1.765625 
L 28.375 1.765625 
Q 31.5 1.765625 32.734375 2.703125 
Q 33.984375 3.65625 34.46875 5.515625 
Q 34.671875 6.25 34.671875 10.109375 
L 34.671875 28.421875 
Q 34.671875 34.515625 33.078125 37.28125 
Q 31.5 40.046875 27.734375 40.046875 
Q 21.921875 40.046875 16.15625 33.6875 
L 16.15625 10.109375 
Q 16.15625 5.5625 16.703125 4.5 
Q 17.390625 3.078125 18.578125 2.421875 
Q 19.78125 1.765625 23.4375 1.765625 
L 23.4375 0 
L 1.3125 0 
L 1.3125 1.765625 
L 2.296875 1.765625 
Q 5.71875 1.765625 6.90625 3.484375 
Q 8.109375 5.21875 8.109375 10.109375 
L 8.109375 26.703125 
Q 8.109375 34.765625 7.734375 36.515625 
Q 7.375 38.28125 6.609375 38.90625 
Q 5.859375 39.546875 4.59375 39.546875 
Q 3.21875 39.546875 1.3125 38.8125 
L 0.59375 40.578125 
L 14.0625 46.046875 
L 16.15625 46.046875 
z
" id="TimesNewRomanPSMT-6e"/>
      <path d="M 14.5 69.4375 
Q 16.546875 69.4375 17.984375 67.984375 
Q 19.4375 66.546875 19.4375 64.5 
Q 19.4375 62.453125 17.984375 60.984375 
Q 16.546875 59.515625 14.5 59.515625 
Q 12.453125 59.515625 10.984375 60.984375 
Q 9.515625 62.453125 9.515625 64.5 
Q 9.515625 66.546875 10.953125 67.984375 
Q 12.40625 69.4375 14.5 69.4375 
z
M 18.5625 46.046875 
L 18.5625 10.109375 
Q 18.5625 5.90625 19.171875 4.515625 
Q 19.78125 3.125 20.96875 2.4375 
Q 22.171875 1.765625 25.34375 1.765625 
L 25.34375 0 
L 3.609375 0 
L 3.609375 1.765625 
Q 6.890625 1.765625 8 2.390625 
Q 9.125 3.03125 9.78125 4.484375 
Q 10.453125 5.953125 10.453125 10.109375 
L 10.453125 27.34375 
Q 10.453125 34.625 10.015625 36.765625 
Q 9.671875 38.328125 8.9375 38.9375 
Q 8.203125 39.546875 6.9375 39.546875 
Q 5.5625 39.546875 3.609375 38.8125 
L 2.9375 40.578125 
L 16.40625 46.046875 
z
" id="TimesNewRomanPSMT-69"/>
      <path d="M 28.46875 6.453125 
Q 21.578125 1.125 19.828125 0.296875 
Q 17.1875 -0.921875 14.203125 -0.921875 
Q 9.578125 -0.921875 6.5625 2.25 
Q 3.5625 5.421875 3.5625 10.59375 
Q 3.5625 13.875 5.03125 16.265625 
Q 7.03125 19.578125 11.984375 22.5 
Q 16.9375 25.4375 28.46875 29.640625 
L 28.46875 31.390625 
Q 28.46875 38.09375 26.34375 40.578125 
Q 24.21875 43.0625 20.171875 43.0625 
Q 17.09375 43.0625 15.28125 41.40625 
Q 13.421875 39.75 13.421875 37.59375 
L 13.53125 34.765625 
Q 13.53125 32.515625 12.375 31.296875 
Q 11.234375 30.078125 9.375 30.078125 
Q 7.5625 30.078125 6.421875 31.34375 
Q 5.28125 32.625 5.28125 34.8125 
Q 5.28125 39.015625 9.578125 42.53125 
Q 13.875 46.046875 21.625 46.046875 
Q 27.59375 46.046875 31.390625 44.046875 
Q 34.28125 42.53125 35.640625 39.3125 
Q 36.53125 37.203125 36.53125 30.71875 
L 36.53125 15.53125 
Q 36.53125 9.125 36.765625 7.6875 
Q 37.015625 6.25 37.578125 5.765625 
Q 38.140625 5.28125 38.875 5.28125 
Q 39.65625 5.28125 40.234375 5.609375 
Q 41.265625 6.25 44.1875 9.1875 
L 44.1875 6.453125 
Q 38.71875 -0.875 33.734375 -0.875 
Q 31.34375 -0.875 29.921875 0.78125 
Q 28.515625 2.4375 28.46875 6.453125 
z
M 28.46875 9.625 
L 28.46875 26.65625 
Q 21.09375 23.734375 18.953125 22.515625 
Q 15.09375 20.359375 13.421875 18.015625 
Q 11.765625 15.671875 11.765625 12.890625 
Q 11.765625 9.375 13.859375 7.046875 
Q 15.96875 4.734375 18.703125 4.734375 
Q 22.40625 4.734375 28.46875 9.625 
z
" id="TimesNewRomanPSMT-61"/>
      <path id="TimesNewRomanPSMT-20"/>
      <path d="M 29.6875 -19.828125 
L 8.203125 -19.828125 
L 8.203125 67.71875 
L 29.6875 67.71875 
L 29.6875 63.875 
L 15.53125 63.875 
L 15.53125 -16.015625 
L 29.6875 -16.015625 
z
" id="TimesNewRomanPSMT-5b"/>
      <path d="M 40.921875 0 
L 15.328125 55.71875 
L 15.328125 11.46875 
Q 15.328125 5.375 16.65625 3.859375 
Q 18.453125 1.8125 22.359375 1.8125 
L 24.703125 1.8125 
L 24.703125 0 
L 1.65625 0 
L 1.65625 1.8125 
L 4 1.8125 
Q 8.203125 1.8125 9.96875 4.34375 
Q 11.03125 5.90625 11.03125 11.46875 
L 11.03125 54.734375 
Q 11.03125 59.125 10.0625 61.078125 
Q 9.375 62.5 7.546875 63.453125 
Q 5.71875 64.40625 1.65625 64.40625 
L 1.65625 66.21875 
L 20.40625 66.21875 
L 44.4375 14.40625 
L 68.0625 66.21875 
L 86.8125 66.21875 
L 86.8125 64.40625 
L 84.515625 64.40625 
Q 80.28125 64.40625 78.515625 61.859375 
Q 77.4375 60.296875 77.4375 54.734375 
L 77.4375 11.46875 
Q 77.4375 5.375 78.8125 3.859375 
Q 80.609375 1.8125 84.515625 1.8125 
L 86.8125 1.8125 
L 86.8125 0 
L 58.6875 0 
L 58.6875 1.8125 
L 61.03125 1.8125 
Q 65.28125 1.8125 67 4.34375 
Q 68.0625 5.90625 68.0625 11.46875 
L 68.0625 55.71875 
L 42.53125 0 
z
" id="TimesNewRomanPSMT-4d"/>
      <path d="M 20.5625 35.5 
L 51.3125 35.5 
L 51.3125 54.4375 
Q 51.3125 59.515625 50.6875 61.140625 
Q 50.203125 62.359375 48.640625 63.234375 
Q 46.53125 64.40625 44.1875 64.40625 
L 41.84375 64.40625 
L 41.84375 66.21875 
L 70.171875 66.21875 
L 70.171875 64.40625 
L 67.828125 64.40625 
Q 65.484375 64.40625 63.375 63.28125 
Q 61.8125 62.5 61.25 60.90625 
Q 60.6875 59.328125 60.6875 54.4375 
L 60.6875 11.71875 
Q 60.6875 6.6875 61.328125 5.078125 
Q 61.8125 3.859375 63.328125 2.984375 
Q 65.484375 1.8125 67.828125 1.8125 
L 70.171875 1.8125 
L 70.171875 0 
L 41.84375 0 
L 41.84375 1.8125 
L 44.1875 1.8125 
Q 48.25 1.8125 50.09375 4.203125 
Q 51.3125 5.765625 51.3125 11.71875 
L 51.3125 31.890625 
L 20.5625 31.890625 
L 20.5625 11.71875 
Q 20.5625 6.6875 21.1875 5.078125 
Q 21.6875 3.859375 23.25 2.984375 
Q 25.34375 1.8125 27.6875 1.8125 
L 30.078125 1.8125 
L 30.078125 0 
L 1.703125 0 
L 1.703125 1.8125 
L 4.046875 1.8125 
Q 8.15625 1.8125 10.015625 4.203125 
Q 11.1875 5.765625 11.1875 11.71875 
L 11.1875 54.4375 
Q 11.1875 59.515625 10.546875 61.140625 
Q 10.0625 62.359375 8.546875 63.234375 
Q 6.390625 64.40625 4.046875 64.40625 
L 1.703125 64.40625 
L 1.703125 66.21875 
L 30.078125 66.21875 
L 30.078125 64.40625 
L 27.6875 64.40625 
Q 25.34375 64.40625 23.25 63.28125 
Q 21.734375 62.5 21.140625 60.90625 
Q 20.5625 59.328125 20.5625 54.4375 
z
" id="TimesNewRomanPSMT-48"/>
      <path d="M 42 13.71875 
L 41.453125 0 
L 2 0 
L 2 1.765625 
L 31.6875 41.3125 
L 17.046875 41.3125 
Q 12.3125 41.3125 10.84375 40.703125 
Q 9.375 40.09375 8.453125 38.375 
Q 7.125 35.9375 6.9375 32.328125 
L 4.984375 32.328125 
L 5.28125 44.734375 
L 42.78125 44.734375 
L 42.78125 42.921875 
L 12.796875 3.265625 
L 29.109375 3.265625 
Q 34.234375 3.265625 36.0625 4.125 
Q 37.890625 4.984375 39.015625 7.125 
Q 39.796875 8.6875 40.328125 13.71875 
z
" id="TimesNewRomanPSMT-7a"/>
      <path d="M 3.65625 67.71875 
L 25.140625 67.71875 
L 25.140625 -19.875 
L 3.65625 -19.875 
L 3.65625 -16.015625 
L 17.828125 -16.015625 
L 17.828125 63.875 
L 3.65625 63.875 
z
" id="TimesNewRomanPSMT-5d"/>
     </defs>
     <g transform="translate(216.463125 923.9975)scale(0.24 -0.24)">
      <use xlink:href="#TimesNewRomanPSMT-46"/>
      <use x="55.615234" xlink:href="#TimesNewRomanPSMT-72"/>
      <use x="88.916016" xlink:href="#TimesNewRomanPSMT-65"/>
      <use x="133.300781" xlink:href="#TimesNewRomanPSMT-63"/>
      <use x="177.685547" xlink:href="#TimesNewRomanPSMT-75"/>
      <use x="227.685547" xlink:href="#TimesNewRomanPSMT-65"/>
      <use x="272.070312" xlink:href="#TimesNewRomanPSMT-6e"/>
      <use x="322.070312" xlink:href="#TimesNewRomanPSMT-63"/>
      <use x="366.455078" xlink:href="#TimesNewRomanPSMT-69"/>
      <use x="394.238281" xlink:href="#TimesNewRomanPSMT-61"/>
      <use x="438.623047" xlink:href="#TimesNewRomanPSMT-20"/>
      <use x="463.623047" xlink:href="#TimesNewRomanPSMT-5b"/>
      <use x="496.923828" xlink:href="#TimesNewRomanPSMT-4d"/>
      <use x="585.839844" xlink:href="#TimesNewRomanPSMT-48"/>
      <use x="658.056641" xlink:href="#TimesNewRomanPSMT-7a"/>
      <use x="702.441406" xlink:href="#TimesNewRomanPSMT-5d"/>
     </g>
    </g>
   </g>
   <g id="matplotlib.axis_2">
    <g id="ytick_1">
     <g id="line2d_25">
      <path clip-path="url(#pcefcb0d579)" d="M 81.555 830.9325 
L 527.955 830.9325 
" style="fill:none;opacity:0.8;stroke:#ff0000;stroke-linecap:square;stroke-width:0.8;"/>
     </g>
     <g id="line2d_26">
      <defs>
       <path d="M 0 0 
L -3 0 
" id="mb9ae5f5950" style="stroke:#000000;"/>
      </defs>
      <g>
       <use style="stroke:#000000;" x="81.555" xlink:href="#mb9ae5f5950" y="830.9325"/>
      </g>
     </g>
     <g id="text_14">
      <!-- 2.00 -->
      <g transform="translate(33.055 839.265)scale(0.24 -0.24)">
       <use xlink:href="#TimesNewRomanPSMT-32"/>
       <use x="50" xlink:href="#TimesNewRomanPSMT-2e"/>
       <use x="75" xlink:href="#TimesNewRomanPSMT-30"/>
       <use x="125" xlink:href="#TimesNewRomanPSMT-30"/>
      </g>
     </g>
    </g>
    <g id="ytick_2">
     <g id="line2d_27">
      <path clip-path="url(#pcefcb0d579)" d="M 81.555 723.693373 
L 527.955 723.693373 
" style="fill:none;opacity:0.8;stroke:#ff0000;stroke-linecap:square;stroke-width:0.8;"/>
     </g>
     <g id="line2d_28">
      <g>
       <use style="stroke:#000000;" x="81.555" xlink:href="#mb9ae5f5950" y="723.693373"/>
      </g>
     </g>
     <g id="text_15">
      <!-- 2.40 -->
      <g transform="translate(33.055 732.025873)scale(0.24 -0.24)">
       <use xlink:href="#TimesNewRomanPSMT-32"/>
       <use x="50" xlink:href="#TimesNewRomanPSMT-2e"/>
       <use x="75" xlink:href="#TimesNewRomanPSMT-34"/>
       <use x="125" xlink:href="#TimesNewRomanPSMT-30"/>
      </g>
     </g>
    </g>
    <g id="ytick_3">
     <g id="line2d_29">
      <path clip-path="url(#pcefcb0d579)" d="M 81.555 633.023983 
L 527.955 633.023983 
" style="fill:none;opacity:0.8;stroke:#ff0000;stroke-linecap:square;stroke-width:0.8;"/>
     </g>
     <g id="line2d_30">
      <g>
       <use style="stroke:#000000;" x="81.555" xlink:href="#mb9ae5f5950" y="633.023983"/>
      </g>
     </g>
     <g id="text_16">
      <!-- 2.80 -->
      <g transform="translate(33.055 641.356483)scale(0.24 -0.24)">
       <use xlink:href="#TimesNewRomanPSMT-32"/>
       <use x="50" xlink:href="#TimesNewRomanPSMT-2e"/>
       <use x="75" xlink:href="#TimesNewRomanPSMT-38"/>
       <use x="125" xlink:href="#TimesNewRomanPSMT-30"/>
      </g>
     </g>
    </g>
    <g id="ytick_4">
     <g id="line2d_31">
      <path clip-path="url(#pcefcb0d579)" d="M 81.555 554.482584 
L 527.955 554.482584 
" style="fill:none;opacity:0.8;stroke:#ff0000;stroke-linecap:square;stroke-width:0.8;"/>
     </g>
     <g id="line2d_32">
      <g>
       <use style="stroke:#000000;" x="81.555" xlink:href="#mb9ae5f5950" y="554.482584"/>
      </g>
     </g>
     <g id="text_17">
      <!-- 3.20 -->
      <g transform="translate(33.055 562.815084)scale(0.24 -0.24)">
       <use xlink:href="#TimesNewRomanPSMT-33"/>
       <use x="50" xlink:href="#TimesNewRomanPSMT-2e"/>
       <use x="75" xlink:href="#TimesNewRomanPSMT-32"/>
       <use x="125" xlink:href="#TimesNewRomanPSMT-30"/>
      </g>
     </g>
    </g>
    <g id="ytick_5">
     <g id="line2d_33">
      <path clip-path="url(#pcefcb0d579)" d="M 81.555 485.204161 
L 527.955 485.204161 
" style="fill:none;opacity:0.8;stroke:#ff0000;stroke-linecap:square;stroke-width:0.8;"/>
     </g>
     <g id="line2d_34">
      <g>
       <use style="stroke:#000000;" x="81.555" xlink:href="#mb9ae5f5950" y="485.204161"/>
      </g>
     </g>
     <g id="text_18">
      <!-- 3.60 -->
      <g transform="translate(33.055 493.536661)scale(0.24 -0.24)">
       <use xlink:href="#TimesNewRomanPSMT-33"/>
       <use x="50" xlink:href="#TimesNewRomanPSMT-2e"/>
       <use x="75" xlink:href="#TimesNewRomanPSMT-36"/>
       <use x="125" xlink:href="#TimesNewRomanPSMT-30"/>
      </g>
     </g>
    </g>
    <g id="ytick_6">
     <g id="line2d_35">
      <path clip-path="url(#pcefcb0d579)" d="M 81.555 423.2325 
L 527.955 423.2325 
" style="fill:none;opacity:0.8;stroke:#ff0000;stroke-linecap:square;stroke-width:0.8;"/>
     </g>
     <g id="line2d_36">
      <g>
       <use style="stroke:#000000;" x="81.555" xlink:href="#mb9ae5f5950" y="423.2325"/>
      </g>
     </g>
     <g id="text_19">
      <!-- 4.00 -->
      <g transform="translate(33.055 431.565)scale(0.24 -0.24)">
       <use xlink:href="#TimesNewRomanPSMT-34"/>
       <use x="50" xlink:href="#TimesNewRomanPSMT-2e"/>
       <use x="75" xlink:href="#TimesNewRomanPSMT-30"/>
       <use x="125" xlink:href="#TimesNewRomanPSMT-30"/>
      </g>
     </g>
    </g>
    <g id="ytick_7">
     <g id="line2d_37">
      <path clip-path="url(#pcefcb0d579)" d="M 81.555 367.172313 
L 527.955 367.172313 
" style="fill:none;opacity:0.8;stroke:#ff0000;stroke-linecap:square;stroke-width:0.8;"/>
     </g>
     <g id="line2d_38">
      <g>
       <use style="stroke:#000000;" x="81.555" xlink:href="#mb9ae5f5950" y="367.172313"/>
      </g>
     </g>
     <g id="text_20">
      <!-- 4.40 -->
      <g transform="translate(33.055 375.504813)scale(0.24 -0.24)">
       <use xlink:href="#TimesNewRomanPSMT-34"/>
       <use x="50" xlink:href="#TimesNewRomanPSMT-2e"/>
       <use x="75" xlink:href="#TimesNewRomanPSMT-34"/>
       <use x="125" xlink:href="#TimesNewRomanPSMT-30"/>
      </g>
     </g>
    </g>
    <g id="ytick_8">
     <g id="line2d_39">
      <path clip-path="url(#pcefcb0d579)" d="M 81.555 315.993373 
L 527.955 315.993373 
" style="fill:none;opacity:0.8;stroke:#ff0000;stroke-linecap:square;stroke-width:0.8;"/>
     </g>
     <g id="line2d_40">
      <g>
       <use style="stroke:#000000;" x="81.555" xlink:href="#mb9ae5f5950" y="315.993373"/>
      </g>
     </g>
     <g id="text_21">
      <!-- 4.80 -->
      <g transform="translate(33.055 324.325873)scale(0.24 -0.24)">
       <use xlink:href="#TimesNewRomanPSMT-34"/>
       <use x="50" xlink:href="#TimesNewRomanPSMT-2e"/>
       <use x="75" xlink:href="#TimesNewRomanPSMT-38"/>
       <use x="125" xlink:href="#TimesNewRomanPSMT-30"/>
      </g>
     </g>
    </g>
    <g id="ytick_9">
     <g id="line2d_41">
      <path clip-path="url(#pcefcb0d579)" d="M 81.555 268.913311 
L 527.955 268.913311 
" style="fill:none;opacity:0.8;stroke:#ff0000;stroke-linecap:square;stroke-width:0.8;"/>
     </g>
     <g id="line2d_42">
      <g>
       <use style="stroke:#000000;" x="81.555" xlink:href="#mb9ae5f5950" y="268.913311"/>
      </g>
     </g>
     <g id="text_22">
      <!-- 5.20 -->
      <g transform="translate(33.055 277.245811)scale(0.24 -0.24)">
       <use xlink:href="#TimesNewRomanPSMT-35"/>
       <use x="50" xlink:href="#TimesNewRomanPSMT-2e"/>
       <use x="75" xlink:href="#TimesNewRomanPSMT-32"/>
       <use x="125" xlink:href="#TimesNewRomanPSMT-30"/>
      </g>
     </g>
    </g>
    <g id="ytick_10">
     <g id="line2d_43">
      <path clip-path="url(#pcefcb0d579)" d="M 81.555 225.323983 
L 527.955 225.323983 
" style="fill:none;opacity:0.8;stroke:#ff0000;stroke-linecap:square;stroke-width:0.8;"/>
     </g>
     <g id="line2d_44">
      <g>
       <use style="stroke:#000000;" x="81.555" xlink:href="#mb9ae5f5950" y="225.323983"/>
      </g>
     </g>
     <g id="text_23">
      <!-- 5.60 -->
      <g transform="translate(33.055 233.656483)scale(0.24 -0.24)">
       <use xlink:href="#TimesNewRomanPSMT-35"/>
       <use x="50" xlink:href="#TimesNewRomanPSMT-2e"/>
       <use x="75" xlink:href="#TimesNewRomanPSMT-36"/>
       <use x="125" xlink:href="#TimesNewRomanPSMT-30"/>
      </g>
     </g>
    </g>
    <g id="ytick_11">
     <g id="line2d_45">
      <path clip-path="url(#pcefcb0d579)" d="M 81.555 184.743288 
L 527.955 184.743288 
" style="fill:none;opacity:0.8;stroke:#ff0000;stroke-linecap:square;stroke-width:0.8;"/>
     </g>
     <g id="line2d_46">
      <g>
       <use style="stroke:#000000;" x="81.555" xlink:href="#mb9ae5f5950" y="184.743288"/>
      </g>
     </g>
     <g id="text_24">
      <!-- 6.00 -->
      <g transform="translate(33.055 193.075788)scale(0.24 -0.24)">
       <use xlink:href="#TimesNewRomanPSMT-36"/>
       <use x="50" xlink:href="#TimesNewRomanPSMT-2e"/>
       <use x="75" xlink:href="#TimesNewRomanPSMT-30"/>
       <use x="125" xlink:href="#TimesNewRomanPSMT-30"/>
      </g>
     </g>
    </g>
    <g id="ytick_12">
     <g id="line2d_47">
      <path clip-path="url(#pcefcb0d579)" d="M 81.555 146.782584 
L 527.955 146.782584 
" style="fill:none;opacity:0.8;stroke:#ff0000;stroke-linecap:square;stroke-width:0.8;"/>
     </g>
     <g id="line2d_48">
      <g>
       <use style="stroke:#000000;" x="81.555" xlink:href="#mb9ae5f5950" y="146.782584"/>
      </g>
     </g>
     <g id="text_25">
      <!-- 6.40 -->
      <g transform="translate(33.055 155.115084)scale(0.24 -0.24)">
       <use xlink:href="#TimesNewRomanPSMT-36"/>
       <use x="50" xlink:href="#TimesNewRomanPSMT-2e"/>
       <use x="75" xlink:href="#TimesNewRomanPSMT-34"/>
       <use x="125" xlink:href="#TimesNewRomanPSMT-30"/>
      </g>
     </g>
    </g>
    <g id="ytick_13">
     <g id="line2d_49">
      <path clip-path="url(#pcefcb0d579)" d="M 81.555 111.123984 
L 527.955 111.123984 
" style="fill:none;opacity:0.8;stroke:#ff0000;stroke-linecap:square;stroke-width:0.8;"/>
     </g>
     <g id="line2d_50">
      <g>
       <use style="stroke:#000000;" x="81.555" xlink:href="#mb9ae5f5950" y="111.123984"/>
      </g>
     </g>
     <g id="text_26">
      <!-- 6.80 -->
      <g transform="translate(33.055 119.456484)scale(0.24 -0.24)">
       <use xlink:href="#TimesNewRomanPSMT-36"/>
       <use x="50" xlink:href="#TimesNewRomanPSMT-2e"/>
       <use x="75" xlink:href="#TimesNewRomanPSMT-38"/>
       <use x="125" xlink:href="#TimesNewRomanPSMT-30"/>
      </g>
     </g>
    </g>
    <g id="ytick_14">
     <g id="line2d_51">
      <path clip-path="url(#pcefcb0d579)" d="M 81.555 77.504161 
L 527.955 77.504161 
" style="fill:none;opacity:0.8;stroke:#ff0000;stroke-linecap:square;stroke-width:0.8;"/>
     </g>
     <g id="line2d_52">
      <g>
       <use style="stroke:#000000;" x="81.555" xlink:href="#mb9ae5f5950" y="77.504161"/>
      </g>
     </g>
     <g id="text_27">
      <!-- 7.20 -->
      <g transform="translate(33.055 85.836661)scale(0.24 -0.24)">
       <use xlink:href="#TimesNewRomanPSMT-37"/>
       <use x="50" xlink:href="#TimesNewRomanPSMT-2e"/>
       <use x="75" xlink:href="#TimesNewRomanPSMT-32"/>
       <use x="125" xlink:href="#TimesNewRomanPSMT-30"/>
      </g>
     </g>
    </g>
    <g id="ytick_15">
     <g id="line2d_53">
      <path clip-path="url(#pcefcb0d579)" d="M 81.555 45.702537 
L 527.955 45.702537 
" style="fill:none;opacity:0.8;stroke:#ff0000;stroke-linecap:square;stroke-width:0.8;"/>
     </g>
     <g id="line2d_54">
      <g>
       <use style="stroke:#000000;" x="81.555" xlink:href="#mb9ae5f5950" y="45.702537"/>
      </g>
     </g>
     <g id="text_28">
      <!-- 7.60 -->
      <g transform="translate(33.055 54.035037)scale(0.24 -0.24)">
       <use xlink:href="#TimesNewRomanPSMT-37"/>
       <use x="50" xlink:href="#TimesNewRomanPSMT-2e"/>
       <use x="75" xlink:href="#TimesNewRomanPSMT-36"/>
       <use x="125" xlink:href="#TimesNewRomanPSMT-30"/>
      </g>
     </g>
    </g>
    <g id="ytick_16">
     <g id="line2d_55">
      <path clip-path="url(#pcefcb0d579)" d="M 81.555 15.5325 
L 527.955 15.5325 
" style="fill:none;opacity:0.8;stroke:#ff0000;stroke-linecap:square;stroke-width:0.8;"/>
     </g>
     <g id="line2d_56">
      <g>
       <use style="stroke:#000000;" x="81.555" xlink:href="#mb9ae5f5950" y="15.5325"/>
      </g>
     </g>
     <g id="text_29">
      <!-- 8.00 -->
      <g transform="translate(33.055 23.865)scale(0.24 -0.24)">
       <use xlink:href="#TimesNewRomanPSMT-38"/>
       <use x="50" xlink:href="#TimesNewRomanPSMT-2e"/>
       <use x="75" xlink:href="#TimesNewRomanPSMT-30"/>
       <use x="125" xlink:href="#TimesNewRomanPSMT-30"/>
      </g>
     </g>
    </g>
    <g id="text_30">
     <!-- Flujo Total [Jy] -->
     <defs>
      <path d="M 18.5 69.4375 
L 18.5 10.109375 
Q 18.5 5.90625 19.109375 4.53125 
Q 19.734375 3.171875 21 2.46875 
Q 22.265625 1.765625 25.734375 1.765625 
L 25.734375 0 
L 3.8125 0 
L 3.8125 1.765625 
Q 6.890625 1.765625 8 2.390625 
Q 9.125 3.03125 9.765625 4.484375 
Q 10.40625 5.953125 10.40625 10.109375 
L 10.40625 50.734375 
Q 10.40625 58.296875 10.0625 60.03125 
Q 9.71875 61.765625 8.953125 62.390625 
Q 8.203125 63.03125 7.03125 63.03125 
Q 5.765625 63.03125 3.8125 62.25 
L 2.984375 63.96875 
L 16.3125 69.4375 
z
" id="TimesNewRomanPSMT-6c"/>
      <path d="M 14.453125 69.484375 
Q 16.546875 69.484375 18.015625 68.015625 
Q 19.484375 66.546875 19.484375 64.453125 
Q 19.484375 62.40625 18.015625 60.9375 
Q 16.546875 59.46875 14.453125 59.46875 
Q 12.40625 59.46875 10.9375 60.9375 
Q 9.46875 62.40625 9.46875 64.453125 
Q 9.46875 66.546875 10.9375 68.015625 
Q 12.40625 69.484375 14.453125 69.484375 
z
M 18.65625 46.046875 
L 18.65625 1.03125 
Q 18.65625 -10.453125 13.765625 -16.015625 
Q 8.890625 -21.578125 1.078125 -21.578125 
Q -3.375 -21.578125 -5.515625 -19.96875 
Q -7.671875 -18.359375 -7.671875 -16.65625 
Q -7.671875 -14.9375 -6.46875 -13.71875 
Q -5.28125 -12.5 -3.65625 -12.5 
Q -2.390625 -12.5 -1.078125 -13.140625 
Q -0.25 -13.484375 2.125 -15.59375 
Q 4.5 -17.71875 6.109375 -17.71875 
Q 7.28125 -17.71875 8.390625 -16.8125 
Q 9.515625 -15.921875 10.046875 -13.796875 
Q 10.59375 -11.671875 10.59375 -4.59375 
L 10.59375 27.25 
Q 10.59375 34.625 10.15625 36.71875 
Q 9.8125 38.328125 9.078125 38.9375 
Q 8.34375 39.546875 7.078125 39.546875 
Q 5.71875 39.546875 3.765625 38.8125 
L 3.078125 40.578125 
L 16.546875 46.046875 
z
" id="TimesNewRomanPSMT-6a"/>
      <path d="M 25 46.046875 
Q 35.15625 46.046875 41.3125 38.328125 
Q 46.53125 31.734375 46.53125 23.1875 
Q 46.53125 17.1875 43.640625 11.03125 
Q 40.765625 4.890625 35.71875 1.75 
Q 30.671875 -1.375 24.46875 -1.375 
Q 14.359375 -1.375 8.40625 6.6875 
Q 3.375 13.484375 3.375 21.921875 
Q 3.375 28.078125 6.421875 34.15625 
Q 9.46875 40.234375 14.453125 43.140625 
Q 19.4375 46.046875 25 46.046875 
z
M 23.484375 42.875 
Q 20.90625 42.875 18.28125 41.328125 
Q 15.671875 39.796875 14.0625 35.9375 
Q 12.453125 32.078125 12.453125 26.03125 
Q 12.453125 16.265625 16.328125 9.171875 
Q 20.21875 2.09375 26.5625 2.09375 
Q 31.296875 2.09375 34.375 6 
Q 37.453125 9.90625 37.453125 19.4375 
Q 37.453125 31.34375 32.328125 38.1875 
Q 28.859375 42.875 23.484375 42.875 
z
" id="TimesNewRomanPSMT-6f"/>
      <path d="M 57.859375 66.21875 
L 58.59375 50.6875 
L 56.734375 50.6875 
Q 56.203125 54.78125 55.28125 56.546875 
Q 53.765625 59.375 51.25 60.71875 
Q 48.734375 62.0625 44.625 62.0625 
L 35.296875 62.0625 
L 35.296875 11.46875 
Q 35.296875 5.375 36.625 3.859375 
Q 38.484375 1.8125 42.328125 1.8125 
L 44.625 1.8125 
L 44.625 0 
L 16.546875 0 
L 16.546875 1.8125 
L 18.890625 1.8125 
Q 23.09375 1.8125 24.859375 4.34375 
Q 25.921875 5.90625 25.921875 11.46875 
L 25.921875 62.0625 
L 17.96875 62.0625 
Q 13.328125 62.0625 11.375 61.375 
Q 8.84375 60.453125 7.03125 57.8125 
Q 5.21875 55.171875 4.890625 50.6875 
L 3.03125 50.6875 
L 3.8125 66.21875 
z
" id="TimesNewRomanPSMT-54"/>
      <path d="M 16.109375 59.421875 
L 16.109375 44.734375 
L 26.5625 44.734375 
L 26.5625 41.3125 
L 16.109375 41.3125 
L 16.109375 12.3125 
Q 16.109375 7.953125 17.359375 6.4375 
Q 18.609375 4.9375 20.5625 4.9375 
Q 22.171875 4.9375 23.6875 5.9375 
Q 25.203125 6.9375 26.03125 8.890625 
L 27.9375 8.890625 
Q 26.21875 4.109375 23.09375 1.6875 
Q 19.96875 -0.734375 16.65625 -0.734375 
Q 14.40625 -0.734375 12.25 0.515625 
Q 10.109375 1.765625 9.078125 4.078125 
Q 8.0625 6.390625 8.0625 11.234375 
L 8.0625 41.3125 
L 0.984375 41.3125 
L 0.984375 42.921875 
Q 3.65625 44 6.46875 46.5625 
Q 9.28125 49.125 11.46875 52.640625 
Q 12.59375 54.5 14.59375 59.421875 
z
" id="TimesNewRomanPSMT-74"/>
      <path d="M 9.96875 64.40625 
L 9.96875 66.21875 
L 38.328125 66.21875 
L 38.328125 64.40625 
L 35.9375 64.40625 
Q 31.890625 64.40625 30.03125 62.015625 
Q 28.859375 60.453125 28.859375 54.5 
L 28.859375 22.125 
Q 28.859375 14.65625 27.21875 10.015625 
Q 25.59375 5.375 21.578125 1.921875 
Q 17.578125 -1.515625 11.921875 -1.515625 
Q 7.328125 -1.515625 4.6875 0.75 
Q 2.046875 3.03125 2.046875 5.953125 
Q 2.046875 8.34375 3.265625 9.578125 
Q 4.890625 11.078125 7.03125 11.078125 
Q 8.59375 11.078125 9.828125 10.046875 
Q 11.078125 9.03125 12.984375 4.59375 
Q 14.109375 1.953125 15.875 1.953125 
Q 17.1875 1.953125 18.328125 3.5625 
Q 19.484375 5.171875 19.484375 9.28125 
L 19.484375 54.5 
Q 19.484375 59.515625 18.84375 61.140625 
Q 18.359375 62.359375 16.796875 63.234375 
Q 14.703125 64.40625 12.359375 64.40625 
z
" id="TimesNewRomanPSMT-4a"/>
      <path d="M 0.59375 44.734375 
L 21.4375 44.734375 
L 21.4375 42.921875 
L 20.40625 42.921875 
Q 18.21875 42.921875 17.109375 41.96875 
Q 16.015625 41.015625 16.015625 39.59375 
Q 16.015625 37.703125 17.625 34.328125 
L 28.515625 11.765625 
L 38.53125 36.46875 
Q 39.359375 38.484375 39.359375 40.4375 
Q 39.359375 41.3125 39.015625 41.75 
Q 38.625 42.28125 37.796875 42.59375 
Q 36.96875 42.921875 34.859375 42.921875 
L 34.859375 44.734375 
L 49.421875 44.734375 
L 49.421875 42.921875 
Q 47.609375 42.71875 46.625 42.125 
Q 45.65625 41.546875 44.484375 39.9375 
Q 44.046875 39.265625 42.828125 36.1875 
L 24.609375 -8.453125 
Q 21.96875 -14.9375 17.6875 -18.25 
Q 13.421875 -21.578125 9.46875 -21.578125 
Q 6.59375 -21.578125 4.734375 -19.921875 
Q 2.875 -18.265625 2.875 -16.109375 
Q 2.875 -14.0625 4.21875 -12.8125 
Q 5.5625 -11.578125 7.90625 -11.578125 
Q 9.515625 -11.578125 12.3125 -12.640625 
Q 14.265625 -13.375 14.75 -13.375 
Q 16.21875 -13.375 17.9375 -11.859375 
Q 19.671875 -10.359375 21.4375 -6 
L 24.609375 1.765625 
L 8.546875 35.5 
Q 7.8125 37.015625 6.203125 39.265625 
Q 4.984375 40.96875 4.203125 41.546875 
Q 3.078125 42.328125 0.59375 42.921875 
z
" id="TimesNewRomanPSMT-79"/>
     </defs>
     <g transform="translate(23.87625 498.54375)rotate(-90)scale(0.24 -0.24)">
      <use xlink:href="#TimesNewRomanPSMT-46"/>
      <use x="55.615234" xlink:href="#TimesNewRomanPSMT-6c"/>
      <use x="83.398438" xlink:href="#TimesNewRomanPSMT-75"/>
      <use x="133.398438" xlink:href="#TimesNewRomanPSMT-6a"/>
      <use x="161.181641" xlink:href="#TimesNewRomanPSMT-6f"/>
      <use x="211.181641" xlink:href="#TimesNewRomanPSMT-20"/>
      <use x="236.166016" xlink:href="#TimesNewRomanPSMT-54"/>
      <use x="297.140625" xlink:href="#TimesNewRomanPSMT-6f"/>
      <use x="347.140625" xlink:href="#TimesNewRomanPSMT-74"/>
      <use x="374.923828" xlink:href="#TimesNewRomanPSMT-61"/>
      <use x="419.308594" xlink:href="#TimesNewRomanPSMT-6c"/>
      <use x="447.091797" xlink:href="#TimesNewRomanPSMT-20"/>
      <use x="472.091797" xlink:href="#TimesNewRomanPSMT-5b"/>
      <use x="505.392578" xlink:href="#TimesNewRomanPSMT-4a"/>
      <use x="544.308594" xlink:href="#TimesNewRomanPSMT-79"/>
      <use x="594.308594" xlink:href="#TimesNewRomanPSMT-5d"/>
     </g>
    </g>
   </g>
   <g id="line2d_57">
    <path clip-path="url(#pcefcb0d579)" d="M 111.317465 607.935519 
L 498.197465 608.048575 
L 498.197465 608.048575 
" style="fill:none;stroke:#1f77b4;stroke-linecap:square;stroke-width:1.5;"/>
   </g>
   <g id="line2d_58">
    <defs>
     <path d="M -3 0 
L 3 0 
M 0 3 
L 0 -3 
" id="mc1c3405a55" style="stroke:#008000;"/>
    </defs>
    <g clip-path="url(#pcefcb0d579)">
     <use style="fill:#008000;stroke:#008000;" x="141.079579" xlink:href="#mc1c3405a55" y="552.481275"/>
     <use style="fill:#008000;stroke:#008000;" x="170.84134" xlink:href="#mc1c3405a55" y="573.269393"/>
     <use style="fill:#008000;stroke:#008000;" x="200.602748" xlink:href="#mc1c3405a55" y="722.177238"/>
     <use style="fill:#008000;stroke:#008000;" x="230.363805" xlink:href="#mc1c3405a55" y="708.149532"/>
     <use style="fill:#008000;stroke:#008000;" x="260.124509" xlink:href="#mc1c3405a55" y="535.714114"/>
     <use style="fill:#008000;stroke:#008000;" x="289.884861" xlink:href="#mc1c3405a55" y="577.993702"/>
     <use style="fill:#008000;stroke:#008000;" x="319.644861" xlink:href="#mc1c3405a55" y="584.641867"/>
     <use style="fill:#008000;stroke:#008000;" x="349.404509" xlink:href="#mc1c3405a55" y="510.824545"/>
     <use style="fill:#008000;stroke:#008000;" x="379.163805" xlink:href="#mc1c3405a55" y="706.216101"/>
     <use style="fill:#008000;stroke:#008000;" x="408.922748" xlink:href="#mc1c3405a55" y="705.4156"/>
     <use style="fill:#008000;stroke:#008000;" x="438.681339" xlink:href="#mc1c3405a55" y="601.102265"/>
     <use style="fill:#008000;stroke:#008000;" x="468.439578" xlink:href="#mc1c3405a55" y="693.066032"/>
    </g>
   </g>
   <g id="line2d_59">
    <g clip-path="url(#pcefcb0d579)">
     <use style="fill:#008000;stroke:#008000;" x="141.079579" xlink:href="#mc1c3405a55" y="682.326528"/>
     <use style="fill:#008000;stroke:#008000;" x="170.84134" xlink:href="#mc1c3405a55" y="700.409273"/>
     <use style="fill:#008000;stroke:#008000;" x="200.602748" xlink:href="#mc1c3405a55" y="757.05784"/>
     <use style="fill:#008000;stroke:#008000;" x="230.363805" xlink:href="#mc1c3405a55" y="791.238439"/>
     <use style="fill:#008000;stroke:#008000;" x="260.124509" xlink:href="#mc1c3405a55" y="652.036602"/>
     <use style="fill:#008000;stroke:#008000;" x="289.884861" xlink:href="#mc1c3405a55" y="544.328692"/>
     <use style="fill:#008000;stroke:#008000;" x="319.644861" xlink:href="#mc1c3405a55" y="693.725552"/>
     <use style="fill:#008000;stroke:#008000;" x="349.404509" xlink:href="#mc1c3405a55" y="622.341643"/>
     <use style="fill:#008000;stroke:#008000;" x="379.163805" xlink:href="#mc1c3405a55" y="826.175982"/>
     <use style="fill:#008000;stroke:#008000;" x="408.922748" xlink:href="#mc1c3405a55" y="565.027238"/>
     <use style="fill:#008000;stroke:#008000;" x="438.681339" xlink:href="#mc1c3405a55" y="811.098668"/>
     <use style="fill:#008000;stroke:#008000;" x="468.439578" xlink:href="#mc1c3405a55" y="690.827455"/>
    </g>
   </g>
   <g id="line2d_60">
    <g clip-path="url(#pcefcb0d579)">
     <use style="fill:#008000;stroke:#008000;" x="141.079579" xlink:href="#mc1c3405a55" y="958.348866"/>
     <use style="fill:#008000;stroke:#008000;" x="170.84134" xlink:href="#mc1c3405a55" y="730.260577"/>
     <use style="fill:#008000;stroke:#008000;" x="200.602748" xlink:href="#mc1c3405a55" y="396.598535"/>
     <use style="fill:#008000;stroke:#008000;" x="230.363805" xlink:href="#mc1c3405a55" y="621.488664"/>
     <use style="fill:#008000;stroke:#008000;" x="260.124509" xlink:href="#mc1c3405a55" y="626.812086"/>
     <use style="fill:#008000;stroke:#008000;" x="289.884861" xlink:href="#mc1c3405a55" y="642.645387"/>
     <use style="fill:#008000;stroke:#008000;" x="319.644861" xlink:href="#mc1c3405a55" y="723.118632"/>
     <use style="fill:#008000;stroke:#008000;" x="349.404509" xlink:href="#mc1c3405a55" y="633.887161"/>
     <use style="fill:#008000;stroke:#008000;" x="379.163805" xlink:href="#mc1c3405a55" y="626.825218"/>
     <use style="fill:#008000;stroke:#008000;" x="408.922748" xlink:href="#mc1c3405a55" y="729.214398"/>
     <use style="fill:#008000;stroke:#008000;" x="438.681339" xlink:href="#mc1c3405a55" y="687.346722"/>
     <use style="fill:#008000;stroke:#008000;" x="468.439578" xlink:href="#mc1c3405a55" y="680.183809"/>
    </g>
   </g>
   <g id="line2d_61">
    <g clip-path="url(#pcefcb0d579)">
     <use style="fill:#008000;stroke:#008000;" x="141.079579" xlink:href="#mc1c3405a55" y="509.445061"/>
     <use style="fill:#008000;stroke:#008000;" x="170.84134" xlink:href="#mc1c3405a55" y="705.985575"/>
     <use style="fill:#008000;stroke:#008000;" x="200.602748" xlink:href="#mc1c3405a55" y="722.052852"/>
     <use style="fill:#008000;stroke:#008000;" x="230.363805" xlink:href="#mc1c3405a55" y="714.602678"/>
     <use style="fill:#008000;stroke:#008000;" x="260.124509" xlink:href="#mc1c3405a55" y="715.012235"/>
     <use style="fill:#008000;stroke:#008000;" x="289.884861" xlink:href="#mc1c3405a55" y="670.811142"/>
     <use style="fill:#008000;stroke:#008000;" x="319.644861" xlink:href="#mc1c3405a55" y="618.001192"/>
     <use style="fill:#008000;stroke:#008000;" x="349.404509" xlink:href="#mc1c3405a55" y="615.457652"/>
     <use style="fill:#008000;stroke:#008000;" x="379.163805" xlink:href="#mc1c3405a55" y="653.437678"/>
     <use style="fill:#008000;stroke:#008000;" x="408.922748" xlink:href="#mc1c3405a55" y="500.213784"/>
     <use style="fill:#008000;stroke:#008000;" x="438.681339" xlink:href="#mc1c3405a55" y="727.779522"/>
     <use style="fill:#008000;stroke:#008000;" x="468.439578" xlink:href="#mc1c3405a55" y="894.185523"/>
    </g>
   </g>
   <g id="line2d_62">
    <g clip-path="url(#pcefcb0d579)">
     <use style="fill:#008000;stroke:#008000;" x="141.079579" xlink:href="#mc1c3405a55" y="614.593766"/>
     <use style="fill:#008000;stroke:#008000;" x="170.84134" xlink:href="#mc1c3405a55" y="635.306265"/>
     <use style="fill:#008000;stroke:#008000;" x="200.602748" xlink:href="#mc1c3405a55" y="708.830612"/>
     <use style="fill:#008000;stroke:#008000;" x="230.363805" xlink:href="#mc1c3405a55" y="684.406383"/>
     <use style="fill:#008000;stroke:#008000;" x="260.124509" xlink:href="#mc1c3405a55" y="523.030981"/>
     <use style="fill:#008000;stroke:#008000;" x="289.884861" xlink:href="#mc1c3405a55" y="470.740282"/>
     <use style="fill:#008000;stroke:#008000;" x="319.644861" xlink:href="#mc1c3405a55" y="763.424229"/>
     <use style="fill:#008000;stroke:#008000;" x="349.404509" xlink:href="#mc1c3405a55" y="648.15586"/>
     <use style="fill:#008000;stroke:#008000;" x="379.163805" xlink:href="#mc1c3405a55" y="958.363366"/>
     <use style="fill:#008000;stroke:#008000;" x="408.922748" xlink:href="#mc1c3405a55" y="656.900077"/>
     <use style="fill:#008000;stroke:#008000;" x="438.681339" xlink:href="#mc1c3405a55" y="544.059086"/>
     <use style="fill:#008000;stroke:#008000;" x="468.439578" xlink:href="#mc1c3405a55" y="827.754059"/>
    </g>
   </g>
   <g id="line2d_63">
    <g clip-path="url(#pcefcb0d579)">
     <use style="fill:#008000;stroke:#008000;" x="141.079579" xlink:href="#mc1c3405a55" y="688.80541"/>
     <use style="fill:#008000;stroke:#008000;" x="170.84134" xlink:href="#mc1c3405a55" y="563.348488"/>
     <use style="fill:#008000;stroke:#008000;" x="200.602748" xlink:href="#mc1c3405a55" y="621.35511"/>
     <use style="fill:#008000;stroke:#008000;" x="230.363805" xlink:href="#mc1c3405a55" y="686.162717"/>
     <use style="fill:#008000;stroke:#008000;" x="260.124509" xlink:href="#mc1c3405a55" y="433.094817"/>
     <use style="fill:#008000;stroke:#008000;" x="289.884861" xlink:href="#mc1c3405a55" y="454.833947"/>
     <use style="fill:#008000;stroke:#008000;" x="319.644861" xlink:href="#mc1c3405a55" y="497.172887"/>
     <use style="fill:#008000;stroke:#008000;" x="349.404509" xlink:href="#mc1c3405a55" y="401.183534"/>
     <use style="fill:#008000;stroke:#008000;" x="379.163805" xlink:href="#mc1c3405a55" y="503.064032"/>
     <use style="fill:#008000;stroke:#008000;" x="408.922748" xlink:href="#mc1c3405a55" y="457.696736"/>
     <use style="fill:#008000;stroke:#008000;" x="438.681339" xlink:href="#mc1c3405a55" y="431.537079"/>
     <use style="fill:#008000;stroke:#008000;" x="468.439578" xlink:href="#mc1c3405a55" y="567.848186"/>
    </g>
   </g>
   <g id="line2d_64">
    <g clip-path="url(#pcefcb0d579)">
     <use style="fill:#008000;stroke:#008000;" x="141.079579" xlink:href="#mc1c3405a55" y="807.793617"/>
     <use style="fill:#008000;stroke:#008000;" x="170.84134" xlink:href="#mc1c3405a55" y="928.384833"/>
     <use style="fill:#008000;stroke:#008000;" x="200.602748" xlink:href="#mc1c3405a55" y="713.32198"/>
     <use style="fill:#008000;stroke:#008000;" x="230.363805" xlink:href="#mc1c3405a55" y="661.619061"/>
     <use style="fill:#008000;stroke:#008000;" x="260.124509" xlink:href="#mc1c3405a55" y="835.108914"/>
     <use style="fill:#008000;stroke:#008000;" x="289.884861" xlink:href="#mc1c3405a55" y="501.409778"/>
     <use style="fill:#008000;stroke:#008000;" x="319.644861" xlink:href="#mc1c3405a55" y="846.70448"/>
     <use style="fill:#008000;stroke:#008000;" x="349.404509" xlink:href="#mc1c3405a55" y="679.213869"/>
     <use style="fill:#008000;stroke:#008000;" x="379.163805" xlink:href="#mc1c3405a55" y="735.865644"/>
     <use style="fill:#008000;stroke:#008000;" x="408.922748" xlink:href="#mc1c3405a55" y="912.889143"/>
     <use style="fill:#008000;stroke:#008000;" x="438.681339" xlink:href="#mc1c3405a55" y="601.825285"/>
     <use style="fill:#008000;stroke:#008000;" x="468.439578" xlink:href="#mc1c3405a55" y="740.584641"/>
    </g>
   </g>
   <g id="line2d_65">
    <g clip-path="url(#pcefcb0d579)">
     <use style="fill:#008000;stroke:#008000;" x="141.079579" xlink:href="#mc1c3405a55" y="817.797766"/>
     <use style="fill:#008000;stroke:#008000;" x="170.84134" xlink:href="#mc1c3405a55" y="615.830586"/>
     <use style="fill:#008000;stroke:#008000;" x="200.602748" xlink:href="#mc1c3405a55" y="571.880753"/>
     <use style="fill:#008000;stroke:#008000;" x="230.363805" xlink:href="#mc1c3405a55" y="593.822632"/>
     <use style="fill:#008000;stroke:#008000;" x="260.124509" xlink:href="#mc1c3405a55" y="476.153859"/>
     <use style="fill:#008000;stroke:#008000;" x="289.884861" xlink:href="#mc1c3405a55" y="842.815034"/>
     <use style="fill:#008000;stroke:#008000;" x="319.644861" xlink:href="#mc1c3405a55" y="751.778163"/>
     <use style="fill:#008000;stroke:#008000;" x="349.404509" xlink:href="#mc1c3405a55" y="570.769822"/>
     <use style="fill:#008000;stroke:#008000;" x="379.163805" xlink:href="#mc1c3405a55" y="831.976353"/>
     <use style="fill:#008000;stroke:#008000;" x="408.922748" xlink:href="#mc1c3405a55" y="594.25972"/>
     <use style="fill:#008000;stroke:#008000;" x="438.681339" xlink:href="#mc1c3405a55" y="739.917618"/>
     <use style="fill:#008000;stroke:#008000;" x="468.439578" xlink:href="#mc1c3405a55" y="827.171984"/>
    </g>
   </g>
   <g id="line2d_66">
    <g clip-path="url(#pcefcb0d579)">
     <use style="fill:#008000;stroke:#008000;" x="141.079579" xlink:href="#mc1c3405a55" y="699.23538"/>
     <use style="fill:#008000;stroke:#008000;" x="170.84134" xlink:href="#mc1c3405a55" y="812.377189"/>
     <use style="fill:#008000;stroke:#008000;" x="200.602748" xlink:href="#mc1c3405a55" y="757.81624"/>
     <use style="fill:#008000;stroke:#008000;" x="230.363805" xlink:href="#mc1c3405a55" y="589.682361"/>
     <use style="fill:#008000;stroke:#008000;" x="260.124509" xlink:href="#mc1c3405a55" y="570.128914"/>
     <use style="fill:#008000;stroke:#008000;" x="289.884861" xlink:href="#mc1c3405a55" y="624.942607"/>
     <use style="fill:#008000;stroke:#008000;" x="319.644861" xlink:href="#mc1c3405a55" y="672.310956"/>
     <use style="fill:#008000;stroke:#008000;" x="349.404509" xlink:href="#mc1c3405a55" y="660.164374"/>
     <use style="fill:#008000;stroke:#008000;" x="379.163805" xlink:href="#mc1c3405a55" y="620.157494"/>
     <use style="fill:#008000;stroke:#008000;" x="408.922748" xlink:href="#mc1c3405a55" y="725.225355"/>
     <use style="fill:#008000;stroke:#008000;" x="438.681339" xlink:href="#mc1c3405a55" y="588.667384"/>
     <use style="fill:#008000;stroke:#008000;" x="468.439578" xlink:href="#mc1c3405a55" y="499.566852"/>
    </g>
   </g>
   <g id="line2d_67">
    <g clip-path="url(#pcefcb0d579)">
     <use style="fill:#008000;stroke:#008000;" x="141.079579" xlink:href="#mc1c3405a55" y="848.59065"/>
     <use style="fill:#008000;stroke:#008000;" x="170.84134" xlink:href="#mc1c3405a55" y="722.212289"/>
     <use style="fill:#008000;stroke:#008000;" x="200.602748" xlink:href="#mc1c3405a55" y="651.054571"/>
     <use style="fill:#008000;stroke:#008000;" x="230.363805" xlink:href="#mc1c3405a55" y="617.69951"/>
     <use style="fill:#008000;stroke:#008000;" x="260.124509" xlink:href="#mc1c3405a55" y="628.320407"/>
     <use style="fill:#008000;stroke:#008000;" x="289.884861" xlink:href="#mc1c3405a55" y="676.42757"/>
     <use style="fill:#008000;stroke:#008000;" x="319.644861" xlink:href="#mc1c3405a55" y="539.333647"/>
     <use style="fill:#008000;stroke:#008000;" x="349.404509" xlink:href="#mc1c3405a55" y="752.558826"/>
     <use style="fill:#008000;stroke:#008000;" x="379.163805" xlink:href="#mc1c3405a55" y="662.631247"/>
     <use style="fill:#008000;stroke:#008000;" x="408.922748" xlink:href="#mc1c3405a55" y="558.003389"/>
     <use style="fill:#008000;stroke:#008000;" x="438.681339" xlink:href="#mc1c3405a55" y="681.585017"/>
     <use style="fill:#008000;stroke:#008000;" x="468.439578" xlink:href="#mc1c3405a55" y="834.164324"/>
    </g>
   </g>
   <g id="line2d_68">
    <g clip-path="url(#pcefcb0d579)">
     <use style="fill:#008000;stroke:#008000;" x="141.079579" xlink:href="#mc1c3405a55" y="701.516033"/>
     <use style="fill:#008000;stroke:#008000;" x="170.84134" xlink:href="#mc1c3405a55" y="804.570117"/>
     <use style="fill:#008000;stroke:#008000;" x="200.602748" xlink:href="#mc1c3405a55" y="655.145142"/>
     <use style="fill:#008000;stroke:#008000;" x="230.363805" xlink:href="#mc1c3405a55" y="786.615039"/>
     <use style="fill:#008000;stroke:#008000;" x="260.124509" xlink:href="#mc1c3405a55" y="588.125769"/>
     <use style="fill:#008000;stroke:#008000;" x="289.884861" xlink:href="#mc1c3405a55" y="552.355119"/>
     <use style="fill:#008000;stroke:#008000;" x="319.644861" xlink:href="#mc1c3405a55" y="576.203947"/>
     <use style="fill:#008000;stroke:#008000;" x="349.404509" xlink:href="#mc1c3405a55" y="696.611041"/>
     <use style="fill:#008000;stroke:#008000;" x="379.163805" xlink:href="#mc1c3405a55" y="666.399454"/>
     <use style="fill:#008000;stroke:#008000;" x="408.922748" xlink:href="#mc1c3405a55" y="725.929798"/>
     <use style="fill:#008000;stroke:#008000;" x="438.681339" xlink:href="#mc1c3405a55" y="622.642209"/>
     <use style="fill:#008000;stroke:#008000;" x="468.439578" xlink:href="#mc1c3405a55" y="660.7461"/>
    </g>
   </g>
   <g id="line2d_69">
    <g clip-path="url(#pcefcb0d579)">
     <use style="fill:#008000;stroke:#008000;" x="141.079579" xlink:href="#mc1c3405a55" y="750.524828"/>
     <use style="fill:#008000;stroke:#008000;" x="170.84134" xlink:href="#mc1c3405a55" y="1000.208487"/>
     <use style="fill:#008000;stroke:#008000;" x="200.602748" xlink:href="#mc1c3405a55" y="684.370227"/>
     <use style="fill:#008000;stroke:#008000;" x="230.363805" xlink:href="#mc1c3405a55" y="728.787768"/>
     <use style="fill:#008000;stroke:#008000;" x="260.124509" xlink:href="#mc1c3405a55" y="558.003595"/>
     <use style="fill:#008000;stroke:#008000;" x="289.884861" xlink:href="#mc1c3405a55" y="460.792444"/>
     <use style="fill:#008000;stroke:#008000;" x="319.644861" xlink:href="#mc1c3405a55" y="519.042681"/>
     <use style="fill:#008000;stroke:#008000;" x="349.404509" xlink:href="#mc1c3405a55" y="651.333816"/>
     <use style="fill:#008000;stroke:#008000;" x="379.163805" xlink:href="#mc1c3405a55" y="541.65788"/>
     <use style="fill:#008000;stroke:#008000;" x="408.922748" xlink:href="#mc1c3405a55" y="721.15691"/>
     <use style="fill:#008000;stroke:#008000;" x="438.681339" xlink:href="#mc1c3405a55" y="744.057081"/>
     <use style="fill:#008000;stroke:#008000;" x="468.439578" xlink:href="#mc1c3405a55" y="756.406843"/>
    </g>
   </g>
   <g id="line2d_70">
    <g clip-path="url(#pcefcb0d579)">
     <use style="fill:#008000;stroke:#008000;" x="141.079579" xlink:href="#mc1c3405a55" y="921.575307"/>
     <use style="fill:#008000;stroke:#008000;" x="170.84134" xlink:href="#mc1c3405a55" y="667.848175"/>
     <use style="fill:#008000;stroke:#008000;" x="200.602748" xlink:href="#mc1c3405a55" y="567.908483"/>
     <use style="fill:#008000;stroke:#008000;" x="230.363805" xlink:href="#mc1c3405a55" y="714.774433"/>
     <use style="fill:#008000;stroke:#008000;" x="260.124509" xlink:href="#mc1c3405a55" y="736.615816"/>
     <use style="fill:#008000;stroke:#008000;" x="289.884861" xlink:href="#mc1c3405a55" y="606.000512"/>
     <use style="fill:#008000;stroke:#008000;" x="319.644861" xlink:href="#mc1c3405a55" y="841.469409"/>
     <use style="fill:#008000;stroke:#008000;" x="349.404509" xlink:href="#mc1c3405a55" y="847.074418"/>
     <use style="fill:#008000;stroke:#008000;" x="379.163805" xlink:href="#mc1c3405a55" y="685.170645"/>
     <use style="fill:#008000;stroke:#008000;" x="408.922748" xlink:href="#mc1c3405a55" y="681.581411"/>
     <use style="fill:#008000;stroke:#008000;" x="438.681339" xlink:href="#mc1c3405a55" y="551.63978"/>
     <use style="fill:#008000;stroke:#008000;" x="468.439578" xlink:href="#mc1c3405a55" y="629.247919"/>
    </g>
   </g>
   <g id="line2d_71">
    <g clip-path="url(#pcefcb0d579)">
     <use style="fill:#008000;stroke:#008000;" x="141.079579" xlink:href="#mc1c3405a55" y="628.805738"/>
     <use style="fill:#008000;stroke:#008000;" x="170.84134" xlink:href="#mc1c3405a55" y="764.52515"/>
     <use style="fill:#008000;stroke:#008000;" x="200.602748" xlink:href="#mc1c3405a55" y="613.667785"/>
     <use style="fill:#008000;stroke:#008000;" x="230.363805" xlink:href="#mc1c3405a55" y="832.159099"/>
     <use style="fill:#008000;stroke:#008000;" x="260.124509" xlink:href="#mc1c3405a55" y="676.727457"/>
     <use style="fill:#008000;stroke:#008000;" x="289.884861" xlink:href="#mc1c3405a55" y="538.970139"/>
     <use style="fill:#008000;stroke:#008000;" x="319.644861" xlink:href="#mc1c3405a55" y="754.365959"/>
     <use style="fill:#008000;stroke:#008000;" x="349.404509" xlink:href="#mc1c3405a55" y="574.008565"/>
     <use style="fill:#008000;stroke:#008000;" x="379.163805" xlink:href="#mc1c3405a55" y="613.990657"/>
     <use style="fill:#008000;stroke:#008000;" x="408.922748" xlink:href="#mc1c3405a55" y="671.254612"/>
     <use style="fill:#008000;stroke:#008000;" x="438.681339" xlink:href="#mc1c3405a55" y="591.181297"/>
     <use style="fill:#008000;stroke:#008000;" x="468.439578" xlink:href="#mc1c3405a55" y="818.067313"/>
    </g>
   </g>
   <g id="line2d_72">
    <defs>
     <path d="M 0 3 
C 0.795609 3 1.55874 2.683901 2.12132 2.12132 
C 2.683901 1.55874 3 0.795609 3 0 
C 3 -0.795609 2.683901 -1.55874 2.12132 -2.12132 
C 1.55874 -2.683901 0.795609 -3 0 -3 
C -0.795609 -3 -1.55874 -2.683901 -2.12132 -2.12132 
C -2.683901 -1.55874 -3 -0.795609 -3 0 
C -3 0.795609 -2.683901 1.55874 -2.12132 2.12132 
C -1.55874 2.683901 -0.795609 3 0 3 
z
" id="mbc14ad3125" style="stroke:#0000ff;"/>
    </defs>
    <g clip-path="url(#pcefcb0d579)">
     <use style="fill:#0000ff;stroke:#0000ff;" x="141.079579" xlink:href="#mbc14ad3125" y="719.197152"/>
     <use style="fill:#0000ff;stroke:#0000ff;" x="170.84134" xlink:href="#mbc14ad3125" y="712.628987"/>
     <use style="fill:#0000ff;stroke:#0000ff;" x="200.602748" xlink:href="#mbc14ad3125" y="669.491485"/>
     <use style="fill:#0000ff;stroke:#0000ff;" x="230.363805" xlink:href="#mbc14ad3125" y="699.391307"/>
     <use style="fill:#0000ff;stroke:#0000ff;" x="260.124509" xlink:href="#mbc14ad3125" y="593.289798"/>
     <use style="fill:#0000ff;stroke:#0000ff;" x="289.884861" xlink:href="#mbc14ad3125" y="590.854214"/>
     <use style="fill:#0000ff;stroke:#0000ff;" x="319.644861" xlink:href="#mbc14ad3125" y="677.802375"/>
     <use style="fill:#0000ff;stroke:#0000ff;" x="349.404509" xlink:href="#mbc14ad3125" y="633.893571"/>
     <use style="fill:#0000ff;stroke:#0000ff;" x="379.163805" xlink:href="#mbc14ad3125" y="662.164728"/>
     <use style="fill:#0000ff;stroke:#0000ff;" x="408.922748" xlink:href="#mbc14ad3125" y="663.320907"/>
     <use style="fill:#0000ff;stroke:#0000ff;" x="438.681339" xlink:href="#mbc14ad3125" y="617.03631"/>
     <use style="fill:#0000ff;stroke:#0000ff;" x="468.439578" xlink:href="#mbc14ad3125" y="737.24407"/>
    </g>
   </g>
   <g id="line2d_73">
    <path clip-path="url(#pcefcb0d579)" d="M 141.079579 662.864427 
L 170.84134 662.864427 
L 200.602748 662.864427 
L 230.363805 662.864427 
L 260.124509 662.864427 
L 289.884861 662.864427 
L 319.644861 662.864427 
L 349.404509 662.864427 
L 379.163805 662.864427 
L 408.922748 662.864427 
L 438.681339 662.864427 
L 468.439578 662.864427 
" style="fill:none;opacity:0.8;stroke:#000000;stroke-dasharray:5.55,2.4;stroke-dashoffset:0;stroke-width:1.5;"/>
   </g>
   <g id="patch_3">
    <path d="M 81.555 830.9325 
L 81.555 15.5325 
" style="fill:none;stroke:#000000;stroke-linecap:square;stroke-linejoin:miter;"/>
   </g>
   <g id="patch_4">
    <path d="M 527.955 830.9325 
L 527.955 15.5325 
" style="fill:none;stroke:#000000;stroke-linecap:square;stroke-linejoin:miter;"/>
   </g>
   <g id="patch_5">
    <path d="M 81.555 830.9325 
L 527.955 830.9325 
" style="fill:none;stroke:#000000;stroke-linecap:square;stroke-linejoin:miter;"/>
   </g>
   <g id="patch_6">
    <path d="M 81.555 15.5325 
L 527.955 15.5325 
" style="fill:none;stroke:#000000;stroke-linecap:square;stroke-linejoin:miter;"/>
   </g>
   <g id="legend_1">
    <g id="patch_7">
     <path d="M 164.385 170.5125 
L 511.155 170.5125 
Q 515.955 170.5125 515.955 165.7125 
L 515.955 32.3325 
Q 515.955 27.5325 511.155 27.5325 
L 164.385 27.5325 
Q 159.585 27.5325 159.585 32.3325 
L 159.585 165.7125 
Q 159.585 170.5125 164.385 170.5125 
z
" style="fill:#ffffff;stroke:#cccccc;stroke-linejoin:miter;"/>
    </g>
    <g id="line2d_74">
     <path d="M 169.185 45.5325 
L 217.185 45.5325 
" style="fill:none;stroke:#1f77b4;stroke-linecap:square;stroke-width:1.5;"/>
    </g>
    <g id="line2d_75"/>
    <g id="text_31">
     <!-- Modelo de Reynolds (1994) -->
     <defs>
      <path d="M 34.71875 5.03125 
Q 31.453125 1.609375 28.328125 0.109375 
Q 25.203125 -1.375 21.578125 -1.375 
Q 14.265625 -1.375 8.796875 4.75 
Q 3.328125 10.890625 3.328125 20.515625 
Q 3.328125 30.125 9.375 38.109375 
Q 15.4375 46.09375 24.953125 46.09375 
Q 30.859375 46.09375 34.71875 42.328125 
L 34.71875 50.59375 
Q 34.71875 58.25 34.34375 60 
Q 33.984375 61.765625 33.203125 62.390625 
Q 32.421875 63.03125 31.25 63.03125 
Q 29.984375 63.03125 27.875 62.25 
L 27.25 63.96875 
L 40.578125 69.4375 
L 42.78125 69.4375 
L 42.78125 17.71875 
Q 42.78125 9.859375 43.140625 8.125 
Q 43.5 6.390625 44.3125 5.703125 
Q 45.125 5.03125 46.1875 5.03125 
Q 47.515625 5.03125 49.703125 5.859375 
L 50.25 4.15625 
L 36.96875 -1.375 
L 34.71875 -1.375 
z
M 34.71875 8.453125 
L 34.71875 31.5 
Q 34.421875 34.8125 32.953125 37.546875 
Q 31.5 40.28125 29.078125 41.671875 
Q 26.65625 43.0625 24.359375 43.0625 
Q 20.0625 43.0625 16.703125 39.203125 
Q 12.25 34.125 12.25 24.359375 
Q 12.25 14.5 16.546875 9.25 
Q 20.84375 4 26.125 4 
Q 30.5625 4 34.71875 8.453125 
z
" id="TimesNewRomanPSMT-64"/>
      <path d="M 67.578125 0 
L 49.90625 0 
L 27.484375 30.953125 
Q 25 30.859375 23.4375 30.859375 
Q 22.796875 30.859375 22.0625 30.875 
Q 21.34375 30.90625 20.5625 30.953125 
L 20.5625 11.71875 
Q 20.5625 5.46875 21.921875 3.953125 
Q 23.78125 1.8125 27.484375 1.8125 
L 30.078125 1.8125 
L 30.078125 0 
L 1.703125 0 
L 1.703125 1.8125 
L 4.203125 1.8125 
Q 8.40625 1.8125 10.203125 4.546875 
Q 11.234375 6.0625 11.234375 11.71875 
L 11.234375 54.5 
Q 11.234375 60.75 9.859375 62.25 
Q 7.953125 64.40625 4.203125 64.40625 
L 1.703125 64.40625 
L 1.703125 66.21875 
L 25.828125 66.21875 
Q 36.375 66.21875 41.375 64.671875 
Q 46.390625 63.140625 49.875 59.015625 
Q 53.375 54.890625 53.375 49.171875 
Q 53.375 43.0625 49.390625 38.5625 
Q 45.40625 34.078125 37.0625 32.234375 
L 50.734375 13.234375 
Q 55.421875 6.6875 58.78125 4.53125 
Q 62.15625 2.390625 67.578125 1.8125 
z
M 20.5625 34.03125 
Q 21.484375 34.03125 22.171875 34 
Q 22.859375 33.984375 23.296875 33.984375 
Q 32.765625 33.984375 37.578125 38.078125 
Q 42.390625 42.1875 42.390625 48.53125 
Q 42.390625 54.734375 38.5 58.609375 
Q 34.625 62.5 28.21875 62.5 
Q 25.390625 62.5 20.5625 61.578125 
z
" id="TimesNewRomanPSMT-52"/>
      <path d="M 32.03125 46.046875 
L 32.03125 30.8125 
L 30.421875 30.8125 
Q 28.5625 37.984375 25.65625 40.578125 
Q 22.75 43.171875 18.265625 43.171875 
Q 14.84375 43.171875 12.734375 41.359375 
Q 10.640625 39.546875 10.640625 37.359375 
Q 10.640625 34.625 12.203125 32.671875 
Q 13.71875 30.671875 18.359375 28.421875 
L 25.484375 24.953125 
Q 35.40625 20.125 35.40625 12.203125 
Q 35.40625 6.109375 30.78125 2.359375 
Q 26.171875 -1.375 20.453125 -1.375 
Q 16.359375 -1.375 11.078125 0.09375 
Q 9.46875 0.59375 8.453125 0.59375 
Q 7.328125 0.59375 6.6875 -0.6875 
L 5.078125 -0.6875 
L 5.078125 15.28125 
L 6.6875 15.28125 
Q 8.0625 8.453125 11.90625 4.984375 
Q 15.765625 1.515625 20.5625 1.515625 
Q 23.921875 1.515625 26.046875 3.484375 
Q 28.171875 5.46875 28.171875 8.25 
Q 28.171875 11.625 25.796875 13.921875 
Q 23.4375 16.21875 16.359375 19.734375 
Q 9.28125 23.25 7.078125 26.078125 
Q 4.890625 28.859375 4.890625 33.109375 
Q 4.890625 38.625 8.671875 42.328125 
Q 12.453125 46.046875 18.453125 46.046875 
Q 21.09375 46.046875 24.859375 44.921875 
Q 27.34375 44.1875 28.171875 44.1875 
Q 28.953125 44.1875 29.390625 44.53125 
Q 29.828125 44.875 30.421875 46.046875 
z
" id="TimesNewRomanPSMT-73"/>
      <path d="M 31.0625 -19.578125 
L 31.0625 -21.390625 
Q 23.6875 -17.671875 18.75 -12.703125 
Q 11.71875 -5.609375 7.90625 4 
Q 4.109375 13.625 4.109375 23.96875 
Q 4.109375 39.109375 11.578125 51.578125 
Q 19.046875 64.0625 31.0625 69.4375 
L 31.0625 67.390625 
Q 25.046875 64.0625 21.1875 58.296875 
Q 17.328125 52.546875 15.421875 43.703125 
Q 13.53125 34.859375 13.53125 25.25 
Q 13.53125 14.796875 15.140625 6.25 
Q 16.40625 -0.484375 18.203125 -4.5625 
Q 20.015625 -8.640625 23.0625 -12.390625 
Q 26.125 -16.15625 31.0625 -19.578125 
z
" id="TimesNewRomanPSMT-28"/>
      <path d="M 2.25 67.390625 
L 2.25 69.4375 
Q 9.671875 65.765625 14.59375 60.796875 
Q 21.578125 53.65625 25.390625 44.0625 
Q 29.203125 34.46875 29.203125 24.078125 
Q 29.203125 8.9375 21.75 -3.53125 
Q 14.3125 -16.015625 2.25 -21.390625 
L 2.25 -19.578125 
Q 8.25 -16.21875 12.125 -10.46875 
Q 16.015625 -4.734375 17.890625 4.125 
Q 19.78125 12.984375 19.78125 22.609375 
Q 19.78125 33.015625 18.171875 41.609375 
Q 16.9375 48.34375 15.109375 52.390625 
Q 13.28125 56.453125 10.25 60.203125 
Q 7.234375 63.96875 2.25 67.390625 
z
" id="TimesNewRomanPSMT-29"/>
     </defs>
     <g transform="translate(236.385 53.9325)scale(0.24 -0.24)">
      <use xlink:href="#TimesNewRomanPSMT-4d"/>
      <use x="88.916016" xlink:href="#TimesNewRomanPSMT-6f"/>
      <use x="138.916016" xlink:href="#TimesNewRomanPSMT-64"/>
      <use x="188.916016" xlink:href="#TimesNewRomanPSMT-65"/>
      <use x="233.300781" xlink:href="#TimesNewRomanPSMT-6c"/>
      <use x="261.083984" xlink:href="#TimesNewRomanPSMT-6f"/>
      <use x="311.083984" xlink:href="#TimesNewRomanPSMT-20"/>
      <use x="336.083984" xlink:href="#TimesNewRomanPSMT-64"/>
      <use x="386.083984" xlink:href="#TimesNewRomanPSMT-65"/>
      <use x="430.46875" xlink:href="#TimesNewRomanPSMT-20"/>
      <use x="455.46875" xlink:href="#TimesNewRomanPSMT-52"/>
      <use x="522.167969" xlink:href="#TimesNewRomanPSMT-65"/>
      <use x="566.552734" xlink:href="#TimesNewRomanPSMT-79"/>
      <use x="616.552734" xlink:href="#TimesNewRomanPSMT-6e"/>
      <use x="666.552734" xlink:href="#TimesNewRomanPSMT-6f"/>
      <use x="716.552734" xlink:href="#TimesNewRomanPSMT-6c"/>
      <use x="744.335938" xlink:href="#TimesNewRomanPSMT-64"/>
      <use x="794.335938" xlink:href="#TimesNewRomanPSMT-73"/>
      <use x="833.251953" xlink:href="#TimesNewRomanPSMT-20"/>
      <use x="858.251953" xlink:href="#TimesNewRomanPSMT-28"/>
      <use x="891.552734" xlink:href="#TimesNewRomanPSMT-31"/>
      <use x="941.552734" xlink:href="#TimesNewRomanPSMT-39"/>
      <use x="991.552734" xlink:href="#TimesNewRomanPSMT-39"/>
      <use x="1041.552734" xlink:href="#TimesNewRomanPSMT-34"/>
      <use x="1091.552734" xlink:href="#TimesNewRomanPSMT-29"/>
     </g>
    </g>
    <g id="line2d_76"/>
    <g id="line2d_77">
     <defs>
      <path d="M -6 0 
L 6 0 
M 0 6 
L 0 -6 
" id="me0aa089b35" style="stroke:#008000;"/>
     </defs>
     <g>
      <use style="fill:#008000;stroke:#008000;" x="193.185" xlink:href="#me0aa089b35" y="79.51125"/>
     </g>
    </g>
    <g id="text_32">
     <!-- Observacin -->
     <defs>
      <path d="M 36.578125 67.71875 
Q 49.46875 67.71875 58.90625 57.921875 
Q 68.359375 48.140625 68.359375 33.5 
Q 68.359375 18.40625 58.828125 8.4375 
Q 49.3125 -1.515625 35.796875 -1.515625 
Q 22.125 -1.515625 12.8125 8.203125 
Q 3.515625 17.921875 3.515625 33.34375 
Q 3.515625 49.125 14.265625 59.078125 
Q 23.578125 67.71875 36.578125 67.71875 
z
M 35.640625 64.15625 
Q 26.765625 64.15625 21.390625 57.5625 
Q 14.703125 49.359375 14.703125 33.546875 
Q 14.703125 17.328125 21.625 8.59375 
Q 26.953125 1.953125 35.6875 1.953125 
Q 45.015625 1.953125 51.09375 9.21875 
Q 57.171875 16.5 57.171875 32.171875 
Q 57.171875 49.171875 50.484375 57.515625 
Q 45.125 64.15625 35.640625 64.15625 
z
" id="TimesNewRomanPSMT-4f"/>
      <path d="M 15.375 37.015625 
Q 21.875 46.046875 29.390625 46.046875 
Q 36.28125 46.046875 41.40625 40.15625 
Q 46.53125 34.28125 46.53125 24.078125 
Q 46.53125 12.15625 38.625 4.890625 
Q 31.84375 -1.375 23.484375 -1.375 
Q 19.578125 -1.375 15.546875 0.046875 
Q 11.53125 1.46875 7.328125 4.296875 
L 7.328125 50.640625 
Q 7.328125 58.25 6.953125 60 
Q 6.59375 61.765625 5.8125 62.390625 
Q 5.03125 63.03125 3.859375 63.03125 
Q 2.484375 63.03125 0.4375 62.25 
L -0.25 63.96875 
L 13.1875 69.4375 
L 15.375 69.4375 
z
M 15.375 33.890625 
L 15.375 7.125 
Q 17.875 4.6875 20.53125 3.4375 
Q 23.1875 2.203125 25.984375 2.203125 
Q 30.421875 2.203125 34.25 7.078125 
Q 38.09375 11.96875 38.09375 21.296875 
Q 38.09375 29.890625 34.25 34.5 
Q 30.421875 39.109375 25.53125 39.109375 
Q 22.953125 39.109375 20.359375 37.796875 
Q 18.40625 36.8125 15.375 33.890625 
z
" id="TimesNewRomanPSMT-62"/>
      <path d="M 0.828125 44.734375 
L 21.875 44.734375 
L 21.875 42.921875 
L 20.515625 42.921875 
Q 18.609375 42.921875 17.609375 41.984375 
Q 16.609375 41.0625 16.609375 39.5 
Q 16.609375 37.796875 17.625 35.453125 
L 28.03125 10.75 
L 38.484375 36.375 
Q 39.59375 39.109375 39.59375 40.53125 
Q 39.59375 41.21875 39.203125 41.65625 
Q 38.671875 42.390625 37.84375 42.65625 
Q 37.015625 42.921875 34.46875 42.921875 
L 34.46875 44.734375 
L 49.078125 44.734375 
L 49.078125 42.921875 
Q 46.53125 42.71875 45.5625 41.890625 
Q 43.84375 40.4375 42.484375 37.015625 
L 26.609375 -1.375 
L 24.609375 -1.375 
L 8.640625 36.375 
Q 7.5625 39.015625 6.578125 40.15625 
Q 5.609375 41.3125 4.109375 42.09375 
Q 3.265625 42.53125 0.828125 42.921875 
z
" id="TimesNewRomanPSMT-76"/>
      <path d="M 25 46.046875 
Q 35.15625 46.046875 41.3125 38.328125 
Q 46.53125 31.734375 46.53125 23.1875 
Q 46.53125 17.1875 43.640625 11.03125 
Q 40.765625 4.890625 35.71875 1.75 
Q 30.671875 -1.375 24.46875 -1.375 
Q 14.359375 -1.375 8.40625 6.6875 
Q 3.375 13.484375 3.375 21.921875 
Q 3.375 28.078125 6.421875 34.15625 
Q 9.46875 40.234375 14.453125 43.140625 
Q 19.4375 46.046875 25 46.046875 
z
M 23.484375 42.875 
Q 20.90625 42.875 18.28125 41.328125 
Q 15.671875 39.796875 14.0625 35.9375 
Q 12.453125 32.078125 12.453125 26.03125 
Q 12.453125 16.265625 16.328125 9.171875 
Q 20.21875 2.09375 26.5625 2.09375 
Q 31.296875 2.09375 34.375 6 
Q 37.453125 9.90625 37.453125 19.4375 
Q 37.453125 31.34375 32.328125 38.1875 
Q 28.859375 42.875 23.484375 42.875 
z
M 35.34375 67.875 
L 20.9375 51.03125 
L 19.28125 51.03125 
L 24.40625 67.875 
z
" id="TimesNewRomanPSMT-f3"/>
     </defs>
     <g transform="translate(236.385 87.91125)scale(0.24 -0.24)">
      <use xlink:href="#TimesNewRomanPSMT-4f"/>
      <use x="72.216797" xlink:href="#TimesNewRomanPSMT-62"/>
      <use x="122.216797" xlink:href="#TimesNewRomanPSMT-73"/>
      <use x="161.132812" xlink:href="#TimesNewRomanPSMT-65"/>
      <use x="205.517578" xlink:href="#TimesNewRomanPSMT-72"/>
      <use x="238.818359" xlink:href="#TimesNewRomanPSMT-76"/>
      <use x="288.818359" xlink:href="#TimesNewRomanPSMT-61"/>
      <use x="333.203125" xlink:href="#TimesNewRomanPSMT-63"/>
      <use x="377.587891" xlink:href="#TimesNewRomanPSMT-69"/>
      <use x="405.371094" xlink:href="#TimesNewRomanPSMT-f3"/>
      <use x="455.371094" xlink:href="#TimesNewRomanPSMT-6e"/>
     </g>
    </g>
    <g id="line2d_78"/>
    <g id="line2d_79">
     <defs>
      <path d="M 0 6 
C 1.591219 6 3.117479 5.367802 4.242641 4.242641 
C 5.367802 3.117479 6 1.591219 6 0 
C 6 -1.591219 5.367802 -3.117479 4.242641 -4.242641 
C 3.117479 -5.367802 1.591219 -6 0 -6 
C -1.591219 -6 -3.117479 -5.367802 -4.242641 -4.242641 
C -5.367802 -3.117479 -6 -1.591219 -6 0 
C -6 1.591219 -5.367802 3.117479 -4.242641 4.242641 
C -3.117479 5.367802 -1.591219 6 0 6 
z
" id="m632f670ea7" style="stroke:#0000ff;"/>
     </defs>
     <g>
      <use style="fill:#0000ff;stroke:#0000ff;" x="193.185" xlink:href="#m632f670ea7" y="113.445"/>
     </g>
    </g>
    <g id="text_33">
     <!-- Media por canal -->
     <defs>
      <path d="M -0.09375 40.28125 
L 13.671875 45.84375 
L 15.53125 45.84375 
L 15.53125 35.40625 
Q 19 41.3125 22.484375 43.671875 
Q 25.984375 46.046875 29.828125 46.046875 
Q 36.578125 46.046875 41.0625 40.765625 
Q 46.578125 34.328125 46.578125 23.96875 
Q 46.578125 12.40625 39.9375 4.828125 
Q 34.46875 -1.375 26.171875 -1.375 
Q 22.5625 -1.375 19.921875 -0.34375 
Q 17.96875 0.390625 15.53125 2.59375 
L 15.53125 -11.03125 
Q 15.53125 -15.625 16.09375 -16.859375 
Q 16.65625 -18.109375 18.046875 -18.84375 
Q 19.4375 -19.578125 23.09375 -19.578125 
L 23.09375 -21.390625 
L -0.34375 -21.390625 
L -0.34375 -19.578125 
L 0.875 -19.578125 
Q 3.5625 -19.625 5.46875 -18.5625 
Q 6.390625 -18.015625 6.90625 -16.8125 
Q 7.421875 -15.625 7.421875 -10.75 
L 7.421875 31.546875 
Q 7.421875 35.890625 7.03125 37.0625 
Q 6.640625 38.234375 5.78125 38.8125 
Q 4.9375 39.40625 3.46875 39.40625 
Q 2.296875 39.40625 0.484375 38.71875 
z
M 15.53125 32.515625 
L 15.53125 15.828125 
Q 15.53125 10.40625 15.96875 8.6875 
Q 16.65625 5.859375 19.3125 3.703125 
Q 21.96875 1.5625 26.03125 1.5625 
Q 30.90625 1.5625 33.9375 5.375 
Q 37.890625 10.359375 37.890625 19.390625 
Q 37.890625 29.640625 33.40625 35.15625 
Q 30.28125 38.96875 25.984375 38.96875 
Q 23.640625 38.96875 21.34375 37.796875 
Q 19.578125 36.921875 15.53125 32.515625 
z
" id="TimesNewRomanPSMT-70"/>
     </defs>
     <g transform="translate(236.385 121.845)scale(0.24 -0.24)">
      <use xlink:href="#TimesNewRomanPSMT-4d"/>
      <use x="88.916016" xlink:href="#TimesNewRomanPSMT-65"/>
      <use x="133.300781" xlink:href="#TimesNewRomanPSMT-64"/>
      <use x="183.300781" xlink:href="#TimesNewRomanPSMT-69"/>
      <use x="211.083984" xlink:href="#TimesNewRomanPSMT-61"/>
      <use x="255.46875" xlink:href="#TimesNewRomanPSMT-20"/>
      <use x="280.46875" xlink:href="#TimesNewRomanPSMT-70"/>
      <use x="330.46875" xlink:href="#TimesNewRomanPSMT-6f"/>
      <use x="380.46875" xlink:href="#TimesNewRomanPSMT-72"/>
      <use x="413.769531" xlink:href="#TimesNewRomanPSMT-20"/>
      <use x="438.769531" xlink:href="#TimesNewRomanPSMT-63"/>
      <use x="483.154297" xlink:href="#TimesNewRomanPSMT-61"/>
      <use x="527.539062" xlink:href="#TimesNewRomanPSMT-6e"/>
      <use x="577.539062" xlink:href="#TimesNewRomanPSMT-61"/>
      <use x="621.923828" xlink:href="#TimesNewRomanPSMT-6c"/>
     </g>
    </g>
    <g id="line2d_80">
     <path d="M 169.185 147.37875 
L 217.185 147.37875 
" style="fill:none;opacity:0.8;stroke:#000000;stroke-dasharray:5.55,2.4;stroke-dashoffset:0;stroke-width:1.5;"/>
    </g>
    <g id="line2d_81"/>
    <g id="text_34">
     <!-- Media Total -->
     <g transform="translate(236.385 155.77875)scale(0.24 -0.24)">
      <use xlink:href="#TimesNewRomanPSMT-4d"/>
      <use x="88.916016" xlink:href="#TimesNewRomanPSMT-65"/>
      <use x="133.300781" xlink:href="#TimesNewRomanPSMT-64"/>
      <use x="183.300781" xlink:href="#TimesNewRomanPSMT-69"/>
      <use x="211.083984" xlink:href="#TimesNewRomanPSMT-61"/>
      <use x="255.46875" xlink:href="#TimesNewRomanPSMT-20"/>
      <use x="280.453125" xlink:href="#TimesNewRomanPSMT-54"/>
      <use x="341.427734" xlink:href="#TimesNewRomanPSMT-6f"/>
      <use x="391.427734" xlink:href="#TimesNewRomanPSMT-74"/>
      <use x="419.210938" xlink:href="#TimesNewRomanPSMT-61"/>
      <use x="463.595703" xlink:href="#TimesNewRomanPSMT-6c"/>
     </g>
    </g>
   </g>
  </g>
 </g>
 <defs>
  <clipPath id="pcefcb0d579">
   <rect height="815.4" width="446.4" x="81.555" y="15.5325"/>
  </clipPath>
 </defs>
</svg>
